{"glyphs":{":":{"x_min":0,"x_max":87,"ha":87,"o":"m 80 433 q 81 428 80 425 q 80 423 80 418 q 79 416 79 415 q 77 408 72 403 q 71 401 70 400 q 66 397 64 396 q 53 390 40 393 q 28 396 21 407 q 18 413 17 422 q 17 426 18 434 q 19 438 22 443 q 22 443 21 444 q 21 451 26 457 q 29 459 32 460 q 35 462 39 462 q 44 463 51 461 q 56 460 62 457 q 74 450 79 436 q 79 435 80 433 z m 57 350 q 67 345 71 332 q 75 322 68 310 q 65 303 55 296 q 46 290 35 290 q 23 290 15 298 q 0 313 7 332 q 12 348 30 359 q 35 363 43 361 q 49 360 54 353 q 54 353 54 352 q 54 351 54 351 q 55 351 56 350 q 57 350 57 350 z"},"$":{"x_min":0,"x_max":412,"ha":412,"o":"m 405 562 q 408 551 400 544 q 393 538 384 540 q 374 542 372 553 q 364 586 349 604 q 348 600 344 592 q 339 583 337 578 q 308 523 249 415 q 260 408 264 406 q 312 375 321 326 q 334 254 284 186 q 242 130 186 119 q 144 111 103 117 q 102 118 100 118 q 97 119 96 119 q 82 88 76 70 q 70 55 53 60 q 36 64 42 80 q 50 102 63 129 q 38 141 23 158 q -12 200 -2 274 q 0 290 17 290 q 32 291 33 278 q 33 276 33 274 q 23 194 68 166 q 72 164 77 161 q 89 186 101 210 q 136 282 203 404 q 176 426 166 452 q 147 503 182 572 q 200 609 246 637 q 295 665 336 654 q 350 684 361 709 q 368 725 386 719 q 399 713 395 699 q 383 671 367 637 q 394 613 405 562 z m 284 329 q 280 342 271 353 q 262 364 255 369 q 248 374 232 384 q 211 346 195 315 q 138 209 111 151 q 132 148 159 151 q 208 155 242 191 q 269 219 282 256 q 294 294 284 329 z m 202 458 q 208 446 220 435 q 224 441 232 455 q 239 469 243 477 q 299 581 320 621 q 309 623 297 620 q 274 615 252 600 q 231 584 217 564 q 202 541 196 512 q 191 484 202 458 z"},"?":{"x_min":0,"x_max":390,"ha":390,"o":"m 353 713 q 385 673 386 625 q 387 577 356 537 q 336 512 306 490 q 276 468 238 446 q 201 424 181 408 q 137 373 112 337 q 79 287 77 259 q 77 248 68 244 q 59 240 50 244 q 42 248 42 259 q 44 292 71 337 q 96 379 123 405 q 145 425 172 444 q 198 463 232 484 q 266 506 284 519 q 304 532 318 548 q 332 563 342 582 q 352 602 352 622 q 351 642 342 666 q 321 709 276 726 q 232 743 183 732 q 128 719 100 687 q 66 648 87 590 q 91 580 84 574 q 77 568 67 570 q 57 571 53 581 q 42 609 44 642 q 47 674 65 699 q 95 743 162 763 q 212 779 266 766 q 320 754 353 713 z m 21 192 q 30 192 34 187 q 51 166 49 146 q 48 134 43 127 q 36 118 28 115 q 18 110 10 111 q -3 112 -10 119 q -19 129 -18 143 q -19 143 -20 144 q -20 145 -20 145 q -22 152 -18 159 q -14 165 -7 167 q -7 167 -5 168 q -3 168 -3 168 q 1 170 3 171 q 3 171 4 171 q 4 171 5 171 q 4 174 4 174 q 4 181 9 187 q 14 192 21 192 z"},"<":{"x_min":0,"x_max":203,"ha":203,"o":"m 199 612 q 203 597 187 591 q 148 576 112 560 q 68 539 45 525 q 47 523 48 523 q 57 517 57 517 q 62 514 68 510 q 75 506 82 502 q 90 497 94 495 q 105 488 118 480 q 130 472 144 463 q 159 454 168 449 q 177 443 176 433 q 175 423 168 418 q 160 414 150 418 q 134 428 104 446 q 74 465 61 473 q 22 498 21 498 q 10 506 6 516 q 1 527 7 539 q 10 544 15 548 q 20 552 24 554 q 27 556 35 560 q 43 564 45 565 q 65 576 86 586 q 130 607 177 625 q 181 626 184 626 q 188 625 191 623 q 194 621 196 618 q 198 616 199 612 z"},"'":{"x_min":0,"x_max":102,"ha":102,"o":"m 77 658 q 93 610 86 582 q 81 564 68 549 q 60 540 50 537 q 39 534 28 540 q 14 549 22 564 q 28 575 41 572 q 42 573 43 574 q 44 575 45 576 q 45 576 46 576 q 46 577 46 578 q 47 579 47 579 q 48 581 50 584 l 50 585 q 50 585 50 586 q 51 587 51 587 q 52 590 53 593 q 53 593 53 594 q 53 595 53 596 q 54 603 53 608 q 53 609 53 610 q 53 611 53 612 l 53 613 q 53 613 52 616 q 52 618 52 620 q 49 630 43 649 q 41 654 42 658 q 44 662 48 666 q 51 669 55 670 q 62 673 68 669 q 74 665 77 658 z"},"=":{"x_min":0,"x_max":226,"ha":226,"o":"m 190 356 q 201 356 206 347 q 210 338 206 330 q 201 321 190 321 l 14 321 q 3 321 -2 330 q -6 338 -2 347 q 3 356 14 356 z m 214 424 q 224 424 228 415 q 233 406 228 398 q 224 389 214 389 l 42 389 q 31 389 26 398 q 22 406 26 415 q 31 424 42 424 z"},"a":{"x_min":0,"x_max":242,"ha":242,"o":"m 165 363 q 165 363 164 363 l 164 363 z m 163 363 l 164 363 z m 222 416 q 230 423 240 420 q 249 417 252 408 q 254 399 247 391 q 233 377 227 370 q 225 369 216 360 q 207 350 203 346 q 199 343 191 338 q 183 332 176 330 q 142 319 127 360 q 102 328 75 313 q 37 293 12 307 q -6 317 -8 338 q -9 360 0 376 q 11 398 37 425 q 65 455 87 468 q 114 484 133 473 q 154 462 154 423 q 154 417 151 413 q 154 408 154 403 q 155 398 155 394 q 155 393 155 389 q 155 389 155 388 q 156 388 156 387 q 158 375 161 368 l 162 365 q 162 364 163 363 l 163 363 l 164 363 l 163 363 l 164 363 l 164 363 l 164 363 q 165 363 165 363 q 165 363 166 364 q 166 364 167 364 q 170 366 173 367 q 177 370 202 396 q 215 409 222 416 z m 116 442 z m 116 443 q 115 443 115 443 q 115 443 116 443 l 116 442 z m 27 346 z m 27 340 l 27 339 z m 27 339 z m 30 338 z m 39 337 z m 89 369 q 104 385 122 412 q 122 412 122 413 q 119 418 119 423 q 119 431 118 435 q 118 437 117 440 q 117 440 116 441 q 116 442 116 442 q 115 442 114 442 q 115 442 115 442 l 111 441 q 108 440 103 437 q 93 431 83 421 q 59 400 44 380 q 37 371 32 361 q 31 359 30 356 q 28 352 27 349 q 27 347 27 345 q 27 342 27 340 l 27 341 l 28 340 l 28 339 l 28 339 q 27 340 27 340 l 27 339 q 28 339 28 339 l 27 339 l 28 339 l 28 339 l 28 339 l 29 338 q 29 338 30 338 q 31 337 31 337 q 31 337 32 337 q 33 337 33 337 q 35 337 39 337 q 40 337 41 337 q 45 339 46 339 q 47 339 48 340 q 59 345 67 350 q 67 350 69 352 q 71 353 71 353 q 74 355 76 357 q 82 362 89 369 z m 163 363 q 164 363 164 363 q 164 363 163 363 l 164 363 l 163 363 l 163 363 l 163 363 z m 163 363 l 163 363 z m 163 363 l 163 363 z m 28 339 z m 163 363 z m 28 339 q 29 338 29 338 q 28 339 28 339 z"},"L":{"x_min":0,"x_max":685,"ha":685,"o":"m 672 431 q 683 445 698 435 q 713 427 703 413 q 661 357 620 311 q 470 147 288 65 q 217 33 155 18 q 104 6 76 9 q 62 10 54 17 q 47 24 46 32 q 44 41 47 55 q 50 69 53 77 q 56 85 61 99 q 63 103 64 105 q 100 195 173 328 q 239 449 309 556 q 308 556 304 554 q 299 553 297 552 q 109 498 -5 563 q -14 570 -14 578 q -13 587 -5 593 q 3 599 13 594 q 39 578 71 571 q 182 545 341 604 q 433 738 504 801 q 598 885 649 840 q 703 791 580 695 q 485 620 364 575 q 336 534 313 498 q 237 378 171 250 q 108 130 87 68 q 83 56 80 44 q 80 44 81 43 q 96 43 110 45 q 219 60 351 137 q 534 244 672 431 z m 547 791 q 515 766 473 719 q 440 681 402 629 q 522 682 593 753 q 611 770 620 785 q 625 792 627 798 q 629 803 629 807 q 629 810 627 813 q 626 813 625 814 q 624 815 621 816 q 620 817 620 817 q 620 817 618 818 q 617 818 613 819 q 613 819 611 820 q 609 820 609 820 q 606 820 603 819 q 599 819 598 818 q 593 817 590 816 q 585 815 579 811 q 563 803 547 791 z m 79 36 l 79 37 z m 79 37 l 79 38 z"},"3":{"x_min":0,"x_max":408,"ha":408,"o":"m 363 572 q 338 520 279 498 q 303 483 318 460 q 342 422 347 360 q 357 243 277 175 q 200 109 107 124 q 64 131 38 160 q 11 190 6 234 q 3 265 10 298 q 17 332 36 347 q 45 354 54 350 q 64 347 66 338 q 69 330 61 323 q 57 319 52 309 q 48 301 45 287 q 37 255 43 226 q 50 192 75 174 q 100 157 136 157 q 212 157 268 214 q 322 271 311 369 q 306 416 282 448 q 259 479 215 482 q 201 483 198 498 q 196 514 211 516 q 271 526 297 544 q 320 560 336 597 q 372 677 345 713 q 323 742 268 743 q 218 744 192 725 q 180 716 168 698 q 157 681 153 662 q 149 643 160 628 q 167 620 164 610 q 160 601 152 598 q 143 596 135 604 q 121 620 118 642 q 115 664 122 684 q 130 705 143 724 q 156 742 173 754 q 211 782 275 778 q 351 774 379 724 q 410 668 363 572 z"},";":{"x_min":0,"x_max":94,"ha":94,"o":"m 83 449 q 86 443 87 435 q 88 426 82 415 q 77 406 68 401 q 62 398 58 397 q 51 396 44 397 q 34 399 26 407 q 18 415 15 425 q 14 431 15 435 q 15 443 19 450 q 22 457 30 465 q 36 470 43 470 q 45 470 48 469 q 53 469 59 468 q 70 465 77 457 q 81 453 83 449 z m 50 433 q 50 433 50 432 q 50 432 51 432 l 51 432 q 51 433 51 433 q 50 433 50 434 z m 73 345 q 79 331 75 314 q 75 313 75 312 q 74 306 72 301 q 62 275 43 258 q 30 247 18 258 q 13 263 13 271 q 13 279 18 283 q 23 287 26 290 q 26 291 27 292 q 28 293 29 294 q 30 295 30 295 q 30 296 31 298 q 32 299 32 299 q 17 305 11 318 q 5 331 10 346 q 15 360 27 366 q 43 373 57 365 q 68 359 73 345 z m 43 334 q 44 334 44 335 q 44 335 43 334 z m 51 331 q 50 332 49 331 q 50 331 50 331 q 50 331 51 331 z m 44 335 q 45 335 45 336 q 45 336 44 335 z"},"J":{"x_min":0,"x_max":600,"ha":600,"o":"m -54 -166 l -54 -167 q -54 -166 -54 -166 l -54 -166 z m 605 417 q 615 418 620 410 q 624 401 620 392 q 615 383 605 382 q 558 380 512 369 q 439 352 364 314 q 338 267 309 217 q 191 19 92 -101 q 43 -160 11 -180 q -42 -214 -72 -197 q -100 -180 -86 -126 q -74 -79 -33 -13 q 64 143 220 263 q 278 307 338 340 q 432 509 474 635 q 499 711 499 756 q 499 780 492 799 q 487 814 476 818 q 472 820 468 820 q 464 820 460 820 q 457 820 454 819 q 438 815 420 805 q 382 784 337 739 q 241 644 209 562 q 205 552 202 544 q 201 539 201 536 q 200 534 200 534 q 200 533 200 531 q 200 527 200 525 q 200 525 200 525 q 201 525 201 522 l 202 522 q 202 522 202 521 l 203 521 q 206 520 205 520 q 207 520 212 520 q 214 520 217 521 q 237 524 265 538 q 275 543 284 537 q 292 531 292 522 q 292 513 283 508 q 249 491 228 487 q 206 483 188 490 q 171 496 166 516 q 159 544 187 598 q 241 705 343 793 q 461 894 512 834 q 541 800 533 732 q 527 673 494 588 q 455 484 392 366 q 499 413 605 417 z m 202 521 q 202 521 202 522 z m 202 522 l 202 521 z m -54 -167 z m 111 -20 q 206 108 304 279 q 237 237 177 181 q 44 60 -25 -70 q -40 -97 -47 -119 q -51 -130 -54 -140 q -56 -149 -56 -154 q -56 -160 -55 -162 l -55 -165 q -54 -166 -54 -166 l -54 -167 l -54 -167 l -54 -167 l -53 -167 l -54 -166 l -53 -167 l -52 -167 l -53 -167 q -48 -168 -41 -166 q -8 -156 26 -121 q 62 -85 111 -20 z"},"V":{"x_min":0,"x_max":665,"ha":665,"o":"m 654 681 l 654 680 q 654 680 654 681 z m 657 683 z m 689 693 q 693 672 673 627 q 640 557 546 428 q 458 309 360 197 q 358 194 344 178 q 331 163 328 160 q 325 156 313 142 q 301 129 296 124 q 291 119 280 107 q 269 95 262 88 q 255 82 245 73 q 235 64 226 56 q 217 49 208 42 q 176 17 159 27 q 125 46 129 119 q 131 175 159 266 q 177 325 219 438 q 265 565 280 610 q 307 695 308 736 q 309 757 298 778 q 288 799 271 808 q 242 823 194 800 q 146 777 103 736 q 60 694 32 646 q 21 625 17 610 q 15 602 15 597 l 16 593 l 17 593 l 18 592 q 19 591 21 591 l 22 591 q 25 591 29 591 q 47 592 79 605 q 95 612 104 596 q 112 581 97 575 q 62 560 41 557 q 28 556 16 557 q 3 558 -6 566 q -16 575 -19 588 q -25 618 5 669 q 35 719 79 762 q 123 804 172 829 q 229 857 271 846 q 320 832 339 771 q 350 735 332 661 q 318 607 280 504 q 272 482 250 424 q 228 366 217 334 q 206 303 192 255 q 177 207 170 166 q 156 92 173 63 q 173 63 174 61 q 176 62 177 63 q 181 66 188 71 l 188 71 q 189 71 190 72 q 193 75 193 75 q 196 77 200 81 q 207 87 215 94 q 231 109 251 129 q 289 168 335 221 q 433 335 519 451 q 551 495 566 517 q 582 539 606 578 q 630 616 644 649 q 647 656 650 664 q 652 670 654 677 q 654 678 654 680 q 654 681 654 681 q 654 681 654 682 q 654 683 654 683 q 653 683 653 683 q 642 681 624 673 q 609 665 600 681 q 592 696 607 703 q 629 714 642 717 q 653 719 662 718 q 671 716 678 710 q 686 704 689 693 z m 170 59 z m 177 57 q 178 55 178 56 q 179 56 178 56 q 178 56 177 57 z m 654 680 q 655 680 659 683 q 659 683 657 683 q 657 684 657 684 q 657 684 656 684 l 657 683 q 656 683 656 683 q 655 682 654 681 q 654 681 654 680 z"},"\"":{"x_min":0,"x_max":127,"ha":127,"o":"m 40 558 q 28 547 16 558 q 11 562 10 570 q 10 578 16 583 q 19 585 21 588 q 21 588 23 590 q 23 590 24 590 q 24 591 24 591 q 26 594 27 596 q 28 598 29 599 q 29 600 30 602 q 30 603 30 603 q 31 605 31 606 q 32 609 33 613 q 33 614 33 614 q 33 616 33 617 q 34 620 33 623 l 33 625 q 33 626 33 626 q 33 627 33 627 q 32 630 32 633 q 31 634 30 637 q 30 638 30 638 q 29 641 28 643 q 27 644 26 646 q 24 648 24 649 l 24 649 q 23 649 22 650 q 22 651 22 651 q 19 654 17 656 q 16 657 15 657 q 15 658 15 658 q 15 658 14 658 q 0 668 8 683 q 11 689 18 691 q 26 693 32 689 q 65 665 68 625 q 71 585 40 558 z m 121 628 q 129 578 94 541 q 89 536 82 536 q 74 536 69 541 q 64 546 64 554 q 64 561 69 566 q 80 577 84 592 q 89 608 87 621 q 82 652 56 668 q 49 671 48 678 q 46 685 50 692 q 53 698 60 700 q 67 702 73 698 q 114 673 121 628 z"},"7":{"x_min":0,"x_max":382,"ha":382,"o":"m 344 732 z m 370 698 q 359 669 334 623 q 303 563 254 482 q 306 487 332 488 q 343 488 347 480 q 351 471 347 462 q 343 453 332 453 q 311 452 232 445 q 230 442 224 432 q 218 422 215 417 q 161 329 90 217 q 83 206 70 186 q 57 167 46 151 q 36 135 28 121 q 22 112 14 112 q 5 112 -1 120 q -7 129 -2 138 q 7 155 18 172 q 30 190 44 211 q 58 232 65 244 q 149 375 189 441 q 137 438 97 443 q 80 445 80 460 q 80 467 86 473 q 91 479 97 478 q 143 473 211 478 q 264 566 299 631 q 324 677 335 704 q 340 716 343 725 q 343 728 344 730 q 343 731 342 732 q 340 733 339 733 q 331 737 316 741 q 289 747 250 747 q 158 747 102 718 q 93 713 84 719 q 76 725 76 734 q 76 742 84 748 q 154 785 259 782 q 307 781 337 772 q 372 760 378 743 q 383 729 370 698 z m 344 733 l 344 732 l 344 731 q 344 732 344 732 z m 346 729 z"},"S":{"x_min":0,"x_max":644,"ha":644,"o":"m 643 415 q 653 418 660 411 q 666 404 664 394 q 662 384 652 381 q 614 368 573 352 q 477 313 371 259 q 391 234 392 206 q 393 157 323 102 q 263 56 176 20 q 96 -13 51 -10 q -2 -7 -1 29 q -1 55 44 94 q 80 127 129 160 q 178 193 214 214 q 251 235 309 266 q 287 278 226 297 q 219 299 200 304 q 180 310 170 313 q 161 316 146 322 q 130 327 117 333 q 104 339 92 345 q 27 382 24 443 q 21 491 66 554 q 115 623 187 680 q 259 736 340 771 q 432 811 509 810 q 597 809 627 767 q 640 749 640 728 q 640 706 631 687 q 622 668 606 648 q 591 627 576 613 q 561 599 546 587 q 492 544 444 529 q 386 511 362 541 q 355 550 358 560 q 362 570 370 572 q 379 574 386 566 q 394 557 409 558 q 444 558 500 596 q 554 633 584 677 q 600 701 603 719 q 606 736 598 747 q 572 782 478 773 q 396 766 315 722 q 234 678 165 613 q 99 552 72 496 q 45 439 76 402 q 89 387 112 375 q 134 363 147 358 q 160 354 190 344 q 198 342 222 334 q 247 327 259 324 q 271 320 290 312 q 309 305 323 297 q 333 292 344 284 q 506 369 643 415 z m 34 29 l 34 28 z m 341 241 q 341 241 340 242 q 340 242 339 242 q 280 211 234 184 q 156 137 103 98 q 48 56 35 32 q 35 31 34 28 l 35 28 l 36 28 q 36 28 38 27 q 40 26 41 26 q 48 25 59 24 q 103 24 187 62 q 280 105 327 152 q 376 201 341 241 z"},"}":{"x_min":0,"x_max":403,"ha":403,"o":"m 347 478 q 369 476 386 459 q 403 442 393 421 q 380 396 333 395 q 303 394 278 407 q 256 386 243 363 q 234 347 229 314 q 221 263 185 208 q 145 149 102 134 q 52 117 14 170 q 8 179 13 187 q 18 195 28 196 q 37 196 44 188 q 82 134 134 199 q 185 264 194 319 q 200 356 207 370 q 220 397 244 423 q 245 424 250 430 q 221 468 242 525 q 248 542 278 590 q 309 637 310 669 q 311 707 294 729 q 274 753 240 731 q 231 725 222 730 q 214 736 214 745 q 214 754 222 761 q 256 783 288 773 q 320 763 335 726 q 364 655 309 573 q 308 572 306 568 q 297 556 292 548 q 288 541 280 528 q 273 514 270 504 q 268 494 268 482 q 268 469 273 458 q 274 456 277 453 q 314 480 347 478 z m 330 430 q 346 430 357 435 q 357 435 358 435 q 359 435 359 436 q 352 441 350 442 q 342 444 331 441 q 321 438 310 432 q 320 430 330 430 z m 361 437 q 361 437 361 437 z"},"Z":{"x_min":0,"x_max":653,"ha":653,"o":"m 693 771 q 724 712 649 619 q 607 567 552 521 q 498 475 424 420 q 426 420 432 420 q 437 419 440 419 q 495 417 512 425 q 522 429 530 423 q 539 417 539 408 q 539 400 530 394 q 504 382 455 383 q 430 384 379 388 q 356 372 310 342 q 264 312 243 297 q 112 206 56 148 q 39 130 30 116 q 21 102 20 94 q 19 63 56 46 q 89 30 150 28 q 206 25 276 34 q 411 51 502 89 q 518 95 526 80 q 535 65 520 58 q 497 49 475 42 q 419 23 358 12 q 298 0 236 -5 q 194 -9 164 -10 q 135 -10 96 -3 q 56 4 28 21 q -10 44 -14 83 q -17 113 8 147 q 29 174 62 204 q 94 233 113 247 q 132 261 177 293 q 211 318 321 393 q 282 396 254 395 q 201 392 181 377 q 167 366 155 380 q 145 392 156 402 q 174 415 194 422 q 215 429 246 430 q 276 431 288 430 q 300 430 336 427 q 343 427 367 424 q 505 520 583 599 q 631 647 652 684 q 672 721 666 744 q 660 768 629 784 q 596 801 535 810 q 349 836 215 788 q 142 762 110 725 q 84 695 109 675 q 123 664 109 652 q 97 641 84 650 q 67 664 62 683 q 53 721 94 759 q 134 797 208 823 q 344 871 535 845 q 571 840 596 834 q 620 829 650 812 q 680 796 693 771 z"},"x":{"x_min":0,"x_max":238,"ha":238,"o":"m 217 421 q 225 429 234 426 q 244 422 246 414 q 249 405 242 397 q 234 388 222 372 q 209 357 198 344 q 186 332 174 324 q 143 302 119 323 q 106 333 89 362 q 63 327 45 309 q 39 303 34 299 q 20 287 17 286 q 1 281 -6 298 q -14 314 1 321 q 4 323 8 323 q 17 331 21 335 q 32 345 42 359 q 53 372 70 396 q 61 411 56 419 q 51 426 48 432 q 44 437 41 440 q 37 446 33 449 l 32 450 l 30 452 q 30 452 29 452 q 28 453 28 453 q 19 460 19 469 q 19 478 28 484 q 36 489 45 484 q 63 473 84 441 q 84 440 92 427 q 122 470 151 482 q 157 485 164 480 q 171 476 173 470 q 177 455 160 448 l 158 447 q 157 446 154 444 q 153 443 153 443 q 152 443 151 442 q 148 439 146 438 q 138 430 128 417 q 122 409 111 394 q 111 393 112 392 q 113 391 113 390 q 122 375 128 366 q 134 356 140 351 q 140 350 142 349 q 142 349 143 348 q 143 348 146 349 q 150 350 151 351 q 156 354 161 358 q 172 369 190 391 q 209 413 217 421 z m 142 348 z"},")":{"x_min":0,"x_max":194,"ha":194,"o":"m 167 765 q 190 594 143 424 q 96 255 -10 118 q -21 104 -34 118 q -45 130 -35 143 q 66 273 110 436 q 154 600 132 765 q 130 780 145 782 q 162 784 166 768 q 167 767 167 765 z"},"&":{"x_min":0,"x_max":487,"ha":487,"o":"m 481 135 q 491 131 492 121 q 494 111 488 104 q 481 97 471 101 q 456 106 438 116 q 393 140 344 178 q 263 86 181 53 q 99 20 44 58 q 20 74 12 99 q 3 124 12 152 q 24 184 58 233 q 83 269 135 335 q 143 346 153 358 q 101 418 76 473 q 53 524 61 574 q 71 637 119 676 q 158 707 211 716 q 264 726 311 708 q 354 690 361 656 q 367 623 344 571 q 337 555 328 540 q 320 524 309 507 q 298 490 290 478 q 281 466 267 448 q 253 429 246 420 q 239 410 222 390 q 206 369 201 362 q 200 361 199 360 q 244 310 309 253 q 316 247 341 227 q 377 273 421 340 q 426 349 436 348 q 447 347 452 340 q 456 332 451 322 q 419 273 389 234 q 378 220 367 206 q 393 186 409 175 q 456 143 481 135 z m 128 452 q 148 420 176 386 q 254 485 290 546 q 323 599 327 630 q 329 646 324 656 q 319 665 305 672 q 264 691 214 682 q 165 673 134 642 q 90 600 93 539 q 95 505 128 452 z m 192 97 q 256 131 317 199 q 282 229 240 268 q 203 303 176 332 q 174 328 168 322 q 86 221 56 164 q 47 146 43 130 q 42 128 42 124 q 42 119 42 116 q 47 98 63 87 q 85 73 114 73 q 150 74 192 97 z"},"_":{"x_min":0,"x_max":542,"ha":542,"o":"m 486 66 q 496 69 502 62 q 509 55 507 45 q 505 35 495 32 q 486 28 476 26 q 467 24 454 23 q 441 22 435 22 q 429 22 412 22 q 395 22 392 22 q 355 22 280 22 q 51 22 51 22 q 44 22 40 26 q 36 30 35 35 q 34 40 35 45 q 36 50 40 54 q 44 58 51 58 q 76 58 121 58 q 166 57 203 57 q 240 57 273 57 q 291 57 328 57 q 366 57 385 57 q 389 57 410 57 q 430 57 438 57 q 445 57 460 59 q 475 61 486 66 z"},"v":{"x_min":0,"x_max":232,"ha":232,"o":"m 216 424 q 225 430 234 424 q 242 419 242 410 q 242 401 234 394 q 185 363 160 393 q 158 395 156 399 q 130 368 91 328 q 64 301 45 286 q 18 265 2 273 q -3 275 -6 281 q -8 287 -6 293 q 2 323 17 384 q 32 446 41 476 q 43 482 48 486 q 52 489 58 488 q 63 488 68 486 q 72 483 74 478 q 77 473 75 467 q 69 446 63 423 q 57 400 50 372 q 43 343 39 327 q 56 342 74 360 q 97 384 118 409 q 140 434 151 449 q 160 461 173 456 q 179 454 182 448 q 185 441 183 435 q 183 434 182 434 l 182 433 q 183 432 183 430 q 183 428 183 426 l 183 426 q 183 425 184 424 q 184 422 184 422 q 184 421 185 419 q 185 419 186 418 q 186 417 186 417 q 188 414 191 414 q 195 413 200 416 q 206 418 216 424 z m 12 305 l 10 305 q 10 305 11 305 z"},"O":{"x_min":0,"x_max":710,"ha":710,"o":"m 706 416 q 717 419 724 412 q 730 404 728 394 q 726 385 716 382 q 658 366 609 357 q 596 322 580 287 q 494 94 372 24 q 324 -3 268 -9 q 211 -15 156 4 q 102 24 68 68 q -22 179 29 399 q 54 504 108 596 q 163 688 244 750 q 296 790 356 812 q 416 835 474 828 q 528 821 560 784 q 591 747 592 692 l 592 691 q 624 690 644 667 q 663 644 660 585 q 655 496 622 395 q 658 402 706 416 z m 602 655 q 590 658 579 656 q 563 652 548 645 q 474 607 427 524 q 404 483 403 452 q 402 419 424 403 q 453 381 518 382 q 548 383 582 388 q 605 458 617 522 q 628 585 624 623 q 622 638 618 644 q 611 653 602 655 z m 425 111 q 511 199 569 351 q 412 330 376 407 q 344 477 422 580 q 488 666 558 686 q 557 690 557 692 q 556 747 524 772 q 500 792 464 794 q 427 796 396 788 q 365 779 334 764 q 229 714 152 598 q 59 458 48 290 q 46 252 50 216 q 53 181 64 146 q 76 112 100 84 q 124 57 159 42 q 195 27 232 25 q 269 23 303 34 q 337 44 368 64 q 399 83 425 111 z"},"(":{"x_min":0,"x_max":277,"ha":277,"o":"m 249 795 q 259 797 266 790 q 272 782 270 772 q 268 763 258 761 q 251 760 245 756 q 239 753 235 750 q 231 746 226 739 q 220 732 218 728 q 215 724 210 716 q 205 707 203 704 q 182 669 163 631 q 125 556 98 476 q 72 396 59 314 q 51 270 48 226 q 46 205 45 184 q 44 181 44 164 q 45 146 49 148 q 59 152 66 145 q 72 138 70 128 q 68 118 58 114 q 41 107 27 118 q 13 129 10 146 q 8 156 8 169 q 8 182 8 190 q 9 198 11 214 q 13 231 13 236 q 28 398 87 548 q 117 624 155 692 q 157 695 166 712 q 175 728 178 734 q 182 740 192 754 q 201 767 208 774 q 216 780 226 786 q 237 793 249 795 z"},"C":{"x_min":0,"x_max":1012,"ha":1012,"o":"m 1003 411 q 1011 418 1020 414 q 1030 411 1032 402 q 1035 394 1027 386 q 980 344 945 314 q 772 167 597 82 q 372 -27 183 1 q 71 17 25 85 q -15 145 6 239 q 24 323 90 420 q 154 515 245 599 q 451 788 634 803 q 652 806 680 803 q 707 800 732 794 q 758 788 776 772 q 794 755 794 731 q 794 721 790 711 q 787 701 780 692 q 774 683 768 676 q 761 668 752 659 q 742 650 736 645 q 730 640 720 633 q 658 586 580 551 q 564 545 555 560 q 547 575 562 582 q 594 596 625 613 q 707 659 742 701 q 760 722 759 734 q 757 747 728 757 q 659 781 566 754 q 388 703 215 520 q 137 437 88 351 q 38 262 34 193 q 30 117 80 77 q 146 24 289 31 q 467 40 691 173 q 827 254 1003 411 z"},"W":{"x_min":0,"x_max":1259,"ha":1259,"o":"m 1135 542 z m 1263 420 q 1274 421 1278 412 q 1283 404 1278 395 q 1274 386 1263 385 q 1182 378 1133 403 q 1095 320 1028 229 q 984 167 947 133 q 904 92 874 92 q 844 91 824 136 q 807 175 796 242 q 788 295 784 347 q 712 232 636 145 q 589 91 546 54 q 503 18 454 2 q 419 -13 386 0 q 353 12 344 50 q 340 70 340 92 q 339 113 343 138 q 347 164 350 180 q 354 196 361 224 q 363 231 363 234 q 369 257 376 282 q 383 307 390 332 q 397 357 404 379 q 410 401 418 428 q 427 456 432 476 q 434 480 438 496 q 443 513 444 518 q 446 524 450 539 q 455 554 456 561 q 458 568 462 582 q 465 596 467 604 q 469 612 472 625 q 474 638 476 648 q 477 657 478 668 q 480 680 481 691 q 484 736 475 758 l 474 760 l 473 762 q 472 765 470 768 l 468 769 q 466 771 466 772 q 457 778 447 778 q 407 778 336 746 q 273 716 217 671 q 106 581 54 470 q 31 420 30 381 q 29 342 51 324 q 61 316 80 312 q 100 308 128 311 q 187 318 278 359 q 287 363 296 357 q 304 351 304 342 q 304 334 295 329 q 210 290 151 279 q 100 270 58 282 q 16 294 1 337 q -23 404 37 513 q 98 623 206 707 q 264 751 323 778 q 395 810 439 813 q 461 814 477 807 q 493 800 501 785 q 509 770 514 754 q 519 737 518 712 q 516 687 514 669 q 513 651 507 624 q 501 598 498 585 q 495 572 490 552 q 488 544 487 541 q 475 495 450 410 q 425 325 420 308 q 380 170 376 107 q 375 87 376 71 q 377 65 379 58 q 379 55 381 51 q 381 51 382 47 q 383 44 385 42 q 385 42 387 39 q 389 36 390 35 q 391 35 391 34 q 398 29 410 29 q 449 30 488 56 q 527 83 569 125 q 653 209 739 341 q 759 372 782 411 q 782 471 789 525 q 797 598 816 640 q 837 686 871 694 q 892 698 904 690 q 915 681 916 664 q 917 646 916 630 q 914 615 909 600 q 885 518 817 402 q 818 331 828 261 q 838 194 854 156 q 861 138 868 130 q 867 131 870 128 l 872 127 q 875 127 876 127 q 899 133 938 173 q 974 211 1014 269 q 1073 356 1104 422 q 1065 457 1069 506 q 1071 529 1083 548 q 1095 567 1115 574 q 1133 580 1150 573 q 1166 566 1171 548 q 1178 520 1159 465 q 1153 451 1147 434 q 1187 413 1263 420 z m 882 660 z m 824 530 q 821 507 819 478 q 844 525 858 562 q 878 610 882 639 q 883 640 883 642 q 883 645 883 645 q 883 649 883 651 q 883 653 883 656 q 883 657 883 658 q 882 659 882 660 l 880 659 q 874 658 869 655 q 859 647 850 629 q 833 596 824 530 z m 1136 541 z m 1135 541 l 1136 541 z m 1136 541 l 1135 542 z m 1108 520 q 1094 488 1118 457 q 1126 476 1130 492 q 1137 514 1138 527 q 1138 535 1137 539 q 1136 541 1136 541 q 1135 541 1135 541 l 1135 542 l 1135 542 l 1135 542 q 1134 542 1134 542 q 1128 541 1126 540 q 1114 535 1108 520 z"},"A":{"x_min":0,"x_max":765,"ha":765,"o":"m 773 415 q 783 412 785 402 q 787 393 780 386 q 774 378 763 381 q 699 398 624 408 q 588 275 521 -9 q 517 -24 502 -22 q 487 -19 486 -5 q 482 79 448 153 q 415 227 354 277 q 280 185 214 112 q 171 64 139 34 q 103 1 80 -11 q 47 -27 29 -9 q 13 6 18 47 q 20 63 37 63 q 52 64 53 51 q 53 49 53 47 q 52 36 52 29 q 52 25 52 21 q 52 20 53 19 q 53 18 53 17 q 54 17 54 17 q 55 17 59 18 l 62 20 q 75 27 88 37 q 113 56 142 85 q 170 114 184 130 q 198 146 231 185 q 275 236 326 299 q 314 307 302 313 q 233 351 154 352 q 138 352 120 350 q 103 347 92 344 q 80 342 58 337 q 37 332 28 330 q 10 326 3 328 q -8 331 -10 341 q -13 351 -5 359 q -1 363 4 366 q 9 370 16 372 q 22 375 28 377 q 33 379 40 382 q 48 384 51 385 q 179 429 345 445 q 394 450 445 451 q 486 505 578 628 q 671 752 721 817 q 730 828 744 823 q 759 818 753 803 q 717 705 696 643 q 665 553 634 442 q 707 432 773 415 z m 53 16 z m 591 585 q 517 487 490 452 q 545 451 598 446 q 614 503 627 544 q 648 613 681 706 q 669 690 652 668 q 635 645 620 624 q 604 603 591 585 z m 11 362 l 10 362 q 10 362 11 362 z m 10 362 q 11 362 11 362 q 10 362 10 362 z m 184 385 q 271 376 347 326 q 391 381 412 408 q 413 410 415 412 q 417 414 417 415 q 360 413 302 405 q 240 397 184 385 z m 547 252 q 569 340 589 412 q 529 417 463 416 q 418 357 376 304 q 377 304 382 300 q 386 297 388 295 q 477 216 508 88 q 531 185 547 252 z"},"f":{"x_min":0,"x_max":281,"ha":281,"o":"m 400 864 q 409 871 420 863 q 430 855 426 844 q 418 824 393 777 q 364 722 327 662 q 240 519 164 432 q 177 431 268 419 q 285 416 280 399 q 275 384 259 385 q 166 397 143 398 q 132 378 122 357 q 133 340 129 320 q 128 312 126 304 q 123 297 118 288 q 114 279 112 274 q 109 270 102 258 q 95 247 95 245 q 54 175 37 135 q 31 119 16 123 q 1 127 3 144 q 14 209 63 316 q 68 327 80 351 q 45 381 15 381 q -1 381 -2 396 q -3 410 10 415 q 57 434 119 434 q 120 435 122 436 q 123 438 124 440 q 125 442 126 443 q 181 544 263 672 q 311 748 351 804 q 355 809 362 820 q 369 830 374 836 q 378 843 386 852 q 393 860 400 864 z m 76 396 q 86 390 95 383 q 103 398 103 399 q 89 398 76 396 z"},"Q":{"x_min":0,"x_max":696,"ha":696,"o":"m 633 360 q 555 198 429 111 q 400 91 368 76 q 450 65 506 18 q 515 11 512 2 q 509 -8 500 -10 q 491 -13 482 -7 q 401 60 238 40 q 214 38 140 23 q 66 8 25 7 q 14 7 10 16 q 6 25 10 34 q 14 42 25 42 q 51 43 124 57 q 128 57 134 58 q 141 60 143 60 q 93 81 62 126 q 32 170 23 227 q 3 351 55 489 q 120 662 212 750 q 258 794 318 816 q 377 839 433 826 q 434 826 436 826 q 438 825 438 824 l 439 824 q 449 836 462 843 q 496 860 532 857 q 569 854 602 835 q 645 811 670 768 q 694 724 701 671 q 717 536 633 360 z m 70 183 q 90 131 134 105 q 177 79 234 80 q 358 82 469 189 q 575 291 630 444 q 688 604 658 708 q 650 733 637 754 q 624 775 604 792 q 584 808 560 816 q 507 833 472 808 q 530 764 531 630 q 531 620 522 616 q 514 611 505 616 q 496 620 496 630 q 496 677 490 707 q 478 764 446 783 q 422 798 380 794 q 265 783 177 652 q 97 532 68 411 q 35 277 70 183 z"},"w":{"x_min":0,"x_max":355,"ha":355,"o":"m 335 420 q 343 428 352 424 q 362 421 364 412 q 367 404 360 395 q 317 353 285 360 q 277 361 268 367 q 248 339 237 331 q 223 319 206 314 q 189 308 172 315 q 153 326 155 360 q 130 337 108 320 q 107 319 104 317 q 94 308 87 303 q 80 298 67 290 q 54 283 44 280 q 35 277 24 278 q 13 279 6 287 q -22 315 14 391 q 41 448 85 483 q 94 489 104 486 q 113 482 116 474 q 118 466 110 458 q 77 432 53 389 q 41 367 35 347 q 32 336 31 327 q 30 320 30 317 q 31 313 32 313 q 32 312 49 322 q 59 328 70 335 q 87 347 108 365 q 134 387 175 428 q 184 437 196 430 q 209 423 204 411 q 198 392 194 373 q 192 361 191 353 q 191 353 192 347 q 196 348 199 349 q 204 350 209 354 q 217 359 226 369 q 232 375 240 388 q 249 400 253 405 q 257 410 264 410 q 270 411 275 408 q 278 406 283 400 q 288 395 290 395 q 304 390 335 420 z"},"-":{"x_min":0,"x_max":221,"ha":221,"o":"m 210 432 q 221 432 226 424 q 230 415 226 406 q 221 397 210 397 l 11 397 q 0 397 -4 406 q -9 415 -4 424 q 0 432 11 432 z"},"E":{"x_min":0,"x_max":633,"ha":633,"o":"m 618 405 q 621 411 626 413 q 632 415 637 414 q 642 412 646 408 q 650 404 651 398 q 652 393 649 387 q 589 280 502 190 q 414 101 308 44 q 155 -39 67 10 q 23 35 8 85 q -7 135 0 191 q 17 318 106 418 q 195 517 319 554 q 257 578 232 625 q 200 685 232 750 q 264 814 329 836 q 359 847 398 846 q 437 845 465 829 q 497 810 504 774 q 510 737 494 704 q 487 688 469 694 q 454 699 460 714 q 475 742 468 770 q 462 797 430 806 q 395 814 361 808 q 327 802 298 780 q 270 757 259 724 q 240 671 270 631 q 305 582 399 570 q 416 568 416 552 q 416 537 399 535 q 318 527 246 487 q 175 447 123 383 q 39 279 33 167 q 31 120 48 82 q 64 45 104 33 q 156 17 213 38 q 270 59 333 100 q 514 215 618 405 z"},"s":{"x_min":0,"x_max":186,"ha":186,"o":"m 181 424 q 191 424 196 415 q 200 406 196 398 q 191 389 181 389 q 144 388 103 365 q 106 353 104 344 q 101 331 89 316 q 60 279 30 271 q 14 267 2 277 q -11 287 -7 304 q -2 324 26 352 q 42 367 59 379 q 55 385 54 387 q 40 410 37 432 q 31 475 53 512 q 73 545 102 557 q 115 563 130 560 q 144 556 152 544 q 168 516 142 470 q 122 435 85 404 q 88 398 89 398 q 136 423 181 424 z m 74 472 q 69 456 71 438 q 111 473 121 508 q 123 518 122 523 q 122 524 121 525 l 120 526 q 115 525 110 522 q 83 506 74 472 z m 21 305 q 20 305 20 305 q 21 305 21 305 z m 20 305 l 21 305 z m 42 317 q 48 322 54 329 q 57 332 60 336 q 51 328 42 317 z"},">":{"x_min":0,"x_max":203,"ha":203,"o":"m 182 543 q 193 535 198 525 q 202 515 196 502 q 193 498 188 494 q 183 489 180 487 q 176 485 168 481 q 160 477 158 476 q 138 465 117 455 q 73 434 26 417 q 19 414 12 418 q 6 422 4 429 q 0 445 16 451 q 55 465 91 481 q 135 502 158 516 q 156 518 155 518 q 154 519 152 520 q 151 521 149 522 q 147 523 146 524 l 109 547 q 71 570 35 593 q 26 598 27 608 q 28 619 36 623 q 43 627 53 623 q 85 603 142 568 q 181 544 182 543 z"},"l":{"x_min":0,"x_max":207,"ha":207,"o":"m 444 849 q 447 835 436 807 q 423 777 398 741 q 332 645 210 545 q 210 544 206 543 q 169 484 138 434 q 96 362 68 308 q 39 250 30 219 q 29 215 28 210 q 28 208 28 206 q 28 206 28 204 q 36 205 39 206 q 75 214 127 250 q 165 275 185 296 q 193 304 202 300 q 212 297 214 288 q 217 280 210 271 q 180 242 130 210 q 62 167 22 168 q 10 169 3 175 q -4 181 -6 191 q -7 201 -6 210 q -6 220 -3 230 q 7 267 43 336 q 75 397 123 476 q 220 635 314 759 q 360 821 385 846 q 392 852 400 858 q 408 863 417 866 q 426 870 434 866 q 441 862 444 849 z m 27 200 q 28 199 28 199 z m 28 200 z m 410 841 z m 372 765 q 391 792 399 809 q 392 802 384 793 q 354 757 311 697 q 307 691 285 659 q 337 712 372 765 z m 424 833 l 425 833 q 424 833 424 833 z"},"8":{"x_min":0,"x_max":456,"ha":456,"o":"m 378 465 q 386 457 387 455 q 403 438 412 416 q 420 393 420 368 q 421 343 418 320 q 414 297 407 274 q 393 226 360 186 q 326 146 282 127 q 207 95 117 126 q 7 163 4 250 q 3 319 67 401 q 136 489 233 517 q 210 531 194 544 q 169 563 154 587 q 140 611 137 639 q 134 667 151 695 q 164 717 186 734 q 207 752 232 762 q 258 772 286 776 q 313 780 338 778 q 381 773 404 741 q 428 709 432 663 q 435 629 427 592 q 419 556 408 529 q 397 502 378 465 z m 175 623 q 184 593 229 561 q 245 550 267 538 q 289 525 312 512 q 334 499 350 487 q 361 510 369 527 q 377 544 385 568 q 393 591 396 610 q 399 630 398 653 q 397 676 390 696 q 378 733 340 742 q 302 750 264 736 q 225 723 200 701 q 161 664 175 623 z m 369 271 q 380 300 384 328 q 389 357 382 388 q 375 419 354 438 q 329 462 276 492 q 273 490 271 490 q 209 479 157 440 q 105 402 71 346 q 54 318 46 291 q 37 264 42 234 q 48 204 74 185 q 105 162 149 152 q 193 142 231 148 q 278 156 315 190 q 352 224 369 271 z"},"\\":{"x_min":0,"x_max":228,"ha":228,"o":"m 227 190 q 231 180 224 174 q 217 168 207 170 q 197 171 193 181 q 84 447 4 724 q 1 735 8 742 q 16 748 26 746 q 35 744 38 734 q 118 457 227 190 z"},"e":{"x_min":0,"x_max":283,"ha":283,"o":"m 268 418 q 277 424 286 418 q 294 413 294 404 q 294 395 286 388 q 196 329 133 302 q 81 279 48 278 q 28 277 11 286 q -6 295 -8 314 q -12 356 35 406 q 78 452 132 473 q 145 478 160 480 q 175 483 191 479 q 207 475 210 460 q 216 437 173 402 q 131 368 98 362 q 69 357 54 376 q 39 358 32 340 q 28 330 27 322 q 27 320 27 317 l 28 317 q 28 317 28 316 q 29 316 30 316 q 31 315 34 314 q 36 314 37 314 q 41 313 41 313 q 46 313 50 314 q 55 314 60 315 q 66 316 72 317 q 104 325 148 347 q 199 373 268 418 z m 81 397 q 81 397 82 396 q 82 396 81 397 z m 176 455 z m 166 446 q 133 442 89 408 q 84 404 80 401 q 80 400 80 399 q 81 398 81 398 q 81 397 81 397 q 82 397 83 396 q 88 396 94 397 q 102 399 108 402 q 143 418 168 445 l 169 446 q 168 446 168 446 q 167 446 166 446 z m 27 318 z m 27 317 z"},"b":{"x_min":0,"x_max":310,"ha":310,"o":"m 243 681 q 199 610 151 526 q 105 446 85 407 q 135 453 178 463 q 196 469 218 464 q 239 458 251 441 q 257 432 258 421 q 287 422 309 418 q 326 415 322 398 q 317 381 300 384 q 277 389 252 386 q 250 382 250 381 q 238 361 218 342 q 199 322 177 308 q 155 295 131 285 q 96 270 80 285 q 58 305 91 344 q 139 400 224 417 q 224 417 224 418 q 223 418 223 419 q 219 427 208 430 q 185 435 146 410 q 72 363 24 279 q 17 266 2 272 q -13 278 -8 292 q -7 293 -6 294 q -6 296 -6 296 l -6 296 q 24 371 92 493 q 121 545 156 605 q 145 617 155 629 q 187 666 216 703 q 267 786 297 826 q 298 827 300 831 q 303 835 304 836 q 306 837 310 841 q 313 845 314 846 q 316 847 320 850 q 324 852 326 851 q 328 850 332 851 q 357 844 333 805 q 298 751 243 681 z m 107 305 z m 146 332 q 183 354 202 374 q 194 371 187 368 q 134 345 113 315 q 126 320 146 332 z"},"%":{"x_min":0,"x_max":477,"ha":477,"o":"m 77 515 q 59 531 57 560 q 54 596 88 636 q 74 636 72 651 q 69 666 84 670 q 166 692 202 656 q 223 635 220 606 q 218 582 203 554 q 173 500 124 498 q 96 497 77 515 z m 170 637 q 157 645 138 644 q 137 644 131 644 q 134 634 127 627 q 107 606 99 591 q 95 583 93 573 q 92 571 92 566 q 92 564 92 560 q 92 560 92 560 q 92 559 92 558 q 94 551 97 545 q 100 540 106 537 q 117 531 131 534 q 146 538 158 551 q 168 562 177 581 q 187 603 185 616 q 185 620 183 623 q 183 623 182 625 l 181 627 q 177 633 170 637 z m 439 705 q 448 719 463 710 q 478 701 469 687 q 268 380 28 103 q 29 96 23 91 q -3 66 -15 53 q -28 41 -40 54 q -52 66 -40 78 q 221 372 439 705 z m 263 272 q 286 274 308 260 q 329 247 339 225 q 360 182 331 144 q 304 108 263 93 q 239 84 222 94 q 200 106 207 138 q 218 183 248 226 q 258 240 272 232 q 278 229 280 222 q 282 214 278 208 q 253 172 243 133 q 241 127 241 125 q 241 125 241 124 q 242 124 244 124 q 245 124 245 124 q 249 125 251 126 q 253 126 254 127 l 254 127 l 255 127 q 257 128 261 130 q 294 149 306 169 q 320 193 304 216 q 289 239 263 237 q 258 237 254 240 q 250 242 248 246 q 245 250 245 255 q 245 262 250 267 q 255 272 263 272 z m 240 124 z m 239 124 q 238 125 238 125 q 238 124 239 124 z"},"m":{"x_min":0,"x_max":403,"ha":403,"o":"m 382 419 q 387 423 392 424 q 398 424 402 421 q 407 418 410 414 q 413 410 412 404 q 411 398 407 394 q 367 354 340 333 q 293 298 275 318 q 268 326 266 351 q 265 353 265 355 q 263 354 258 350 q 253 346 252 345 q 249 342 244 337 q 238 332 236 330 q 217 311 204 302 q 193 292 179 294 q 165 295 161 311 q 158 323 166 366 q 174 414 174 424 q 172 423 165 421 q 158 419 155 417 q 120 397 90 366 q 60 336 22 291 q 13 280 2 288 q -10 296 -8 308 q 4 359 41 421 q 77 483 111 511 q 120 517 130 514 q 139 510 142 502 q 144 494 136 486 q 105 460 71 403 q 68 397 61 385 q 63 386 66 390 q 70 394 72 396 q 116 438 145 452 q 179 468 198 454 q 212 444 208 410 q 207 397 203 374 q 199 352 197 343 l 197 342 l 197 341 q 203 347 215 359 q 227 371 237 380 q 247 388 258 393 q 267 397 274 396 q 282 395 287 390 q 292 386 296 379 q 299 372 300 363 q 300 362 300 358 q 301 353 302 351 q 304 353 313 358 q 322 363 326 366 q 347 384 382 419 z m 195 319 z"},"#":{"x_min":0,"x_max":594,"ha":594,"o":"m 573 516 q 583 516 588 508 q 592 499 588 490 q 583 481 573 481 q 526 478 464 476 q 437 418 404 360 q 467 360 518 362 q 529 362 534 354 q 538 345 534 336 q 529 327 518 327 q 454 325 384 324 q 341 252 291 186 q 285 178 274 179 q 264 180 260 188 q 256 195 261 204 q 304 260 343 324 q 249 324 166 327 q 131 265 100 210 q 94 201 85 202 q 76 202 70 210 q 65 218 70 228 q 98 278 127 328 q 65 331 24 333 q 14 334 10 343 q 5 352 9 360 q 13 369 24 368 q 86 365 146 363 q 177 416 211 473 q 127 474 59 476 q 48 476 44 485 q 39 494 44 502 q 48 511 59 511 q 134 509 232 508 q 276 581 311 636 q 316 645 326 644 q 337 643 341 636 q 345 628 341 618 q 309 567 273 508 q 365 509 440 511 q 462 560 478 607 q 484 622 501 618 q 516 612 512 597 q 499 559 479 512 q 543 514 573 516 z m 364 359 q 396 415 424 475 q 344 473 252 473 q 219 418 186 362 q 277 359 364 359 z"},",":{"x_min":0,"x_max":82,"ha":82,"o":"m 64 303 q 66 298 65 289 q 64 278 62 272 q 61 263 56 255 q 52 249 45 246 q 39 244 32 248 q 26 251 24 259 q 22 266 25 272 l 26 274 q 28 278 28 280 q 25 281 25 281 q 18 284 16 292 q 14 299 18 305 q 23 313 29 317 q 30 317 31 317 q 34 319 36 319 q 40 320 44 320 q 52 319 57 314 q 61 310 64 303 z"},"n":{"x_min":0,"x_max":266,"ha":266,"o":"m 245 408 q 253 415 263 412 q 273 408 275 400 q 277 391 270 383 q 217 336 202 326 q 167 304 144 320 q 132 328 130 344 q 128 360 130 370 q 132 381 137 399 q 138 401 139 404 q 140 408 140 409 q 116 393 74 349 q 57 331 42 313 q 35 306 30 299 q 29 298 26 295 l 26 294 q 26 294 25 293 q 16 281 2 286 q -11 292 -7 306 q 22 423 104 504 q 111 512 120 508 q 130 505 132 496 q 135 488 128 479 q 87 439 59 384 q 101 427 129 444 q 151 457 164 454 q 184 448 179 421 q 178 416 170 384 q 165 369 164 362 q 164 361 164 358 q 164 355 164 353 q 164 351 164 351 q 164 351 164 350 q 164 349 164 349 l 164 349 q 165 349 168 350 q 171 350 172 350 q 176 352 184 356 q 194 363 203 370 q 212 377 228 392 q 244 406 245 408 z m 145 430 l 145 428 q 146 429 145 430 z m 158 419 z m 164 348 z m 165 348 l 164 348 z"},"h":{"x_min":0,"x_max":370,"ha":370,"o":"m 339 866 l 339 865 z m 355 425 q 364 431 372 426 q 380 420 380 411 q 381 402 373 395 q 305 350 273 334 q 215 304 193 306 q 186 306 182 308 q 178 310 176 314 q 174 317 173 320 q 172 324 173 329 q 174 334 175 338 q 176 342 178 348 q 181 354 182 357 q 184 360 187 366 q 190 371 190 372 q 206 404 209 421 q 211 433 209 442 q 208 445 207 445 q 207 445 204 446 q 201 446 200 445 q 193 444 185 440 q 166 431 141 411 q 85 366 24 286 q 14 274 2 279 q -11 284 -9 300 q -6 313 17 359 q 38 399 74 462 q 108 521 156 601 q 152 614 162 622 q 164 624 177 634 q 179 638 191 658 q 203 678 210 689 q 218 701 236 731 q 254 761 264 778 q 274 794 290 818 q 306 842 320 861 q 325 868 332 874 q 338 880 346 885 q 355 890 362 888 q 369 885 373 873 q 376 871 374 863 q 373 855 373 852 q 373 848 370 840 q 366 831 364 828 q 363 825 360 818 q 356 810 355 808 q 299 693 204 611 q 201 607 201 607 q 131 490 84 407 q 107 429 126 444 q 177 483 208 481 q 231 479 240 458 q 248 438 243 413 q 239 394 224 361 q 222 357 217 348 q 218 348 220 349 q 223 350 225 350 q 243 357 267 370 q 295 386 355 425 z m 361 854 z m 339 867 q 339 866 339 865 q 338 864 338 864 q 338 864 338 864 q 339 865 339 865 q 339 866 339 867 z m 207 445 z"},"z":{"x_min":0,"x_max":172,"ha":172,"o":"m 158 494 q 172 496 178 486 q 184 475 175 464 q 155 440 129 413 q 131 412 135 411 q 139 410 141 410 q 148 408 152 402 q 155 395 154 388 q 152 381 145 378 q 138 374 132 376 q 123 378 119 379 q 116 380 109 382 q 102 383 100 383 q 83 366 63 349 q 81 350 83 351 q 104 351 157 348 q 164 348 170 343 q 175 338 175 331 q 175 324 170 318 q 164 313 157 313 q 104 316 83 315 q 70 315 9 310 q 3 310 -2 314 q -7 317 -8 323 q -11 334 0 343 q 26 362 59 392 q 47 395 42 396 q 37 397 34 398 q 34 398 33 398 q 32 398 31 398 l 32 398 q 18 400 17 415 q 17 422 22 428 q 28 433 35 433 q 38 433 54 430 q 56 429 58 428 q 60 428 62 428 q 64 427 66 426 q 69 426 71 426 q 73 425 76 424 q 78 424 80 424 q 82 423 84 422 q 87 422 89 422 q 107 440 121 456 q 108 456 98 456 q 53 460 50 459 q 43 459 38 464 q 33 470 33 477 q 33 493 50 494 q 55 495 95 492 q 134 489 158 494 z"},"B":{"x_min":0,"x_max":746,"ha":746,"o":"m 720 406 q 761 340 745 272 q 730 206 680 138 q 634 76 558 36 q 482 -4 400 -15 q 340 -23 282 -11 q 223 1 178 34 q 165 44 153 57 q 141 70 132 86 q 124 101 126 118 q 127 135 141 148 q 149 155 159 152 q 169 148 171 140 q 173 131 166 123 q 160 118 161 112 q 161 108 163 102 q 164 98 168 92 q 185 66 227 45 q 318 -1 434 27 q 506 44 567 82 q 628 121 665 178 q 707 244 714 294 q 722 351 677 405 q 644 445 595 454 q 546 464 500 451 q 454 438 410 410 q 401 404 392 410 q 384 415 384 424 q 384 433 392 440 q 474 498 549 592 q 574 623 590 655 q 606 687 613 727 q 620 767 604 802 q 588 845 541 853 q 494 861 462 830 q 435 805 399 756 q 376 724 347 678 q 335 610 296 514 q 255 410 192 295 q 136 192 82 114 q 57 77 38 54 q 18 31 7 25 q -3 20 -13 26 q -23 33 -19 44 q 13 128 97 297 q 181 466 259 600 q 294 661 315 694 q 317 710 318 723 q 321 762 312 787 q 304 809 282 819 q 273 825 273 834 q 273 842 282 848 q 290 854 300 849 q 349 827 353 753 q 385 798 415 833 q 473 897 539 889 q 594 882 623 841 q 650 803 648 742 q 646 651 559 549 q 533 518 502 487 q 545 497 585 493 q 670 484 720 406 z m -8 57 z m 268 538 q 273 550 277 562 q 261 533 248 510 q 175 378 103 230 q 81 185 66 153 q 194 346 268 538 z"},"K":{"x_min":0,"x_max":871,"ha":871,"o":"m 899 653 q 904 644 898 636 q 892 627 884 627 q 875 627 869 636 q 858 658 844 670 q 838 675 829 679 q 827 680 823 681 q 818 683 814 684 q 807 685 796 685 q 787 684 778 682 q 755 677 731 666 q 681 642 634 606 q 587 569 532 516 q 462 450 383 362 q 405 371 424 372 q 442 372 456 366 q 471 359 480 344 q 490 330 496 317 q 502 304 506 282 q 510 259 512 246 q 514 234 516 213 q 516 210 516 209 q 516 208 516 206 q 517 203 517 202 q 517 200 517 198 q 517 197 517 195 q 522 155 526 135 q 532 102 540 85 q 543 79 545 75 q 548 70 550 68 q 557 60 564 56 q 571 53 580 52 q 592 52 606 56 q 616 59 623 52 q 630 44 628 34 q 626 25 615 22 q 583 13 555 23 q 527 33 512 62 q 490 102 482 184 q 475 266 467 293 q 463 306 459 312 q 454 322 449 327 q 444 333 438 334 q 436 335 433 336 q 432 336 432 336 q 431 336 431 336 q 426 336 420 336 q 416 336 409 334 q 402 332 395 329 q 381 323 363 312 q 334 294 299 265 q 185 130 98 10 q 92 2 82 2 q 72 3 68 10 q 63 18 68 28 q 71 34 78 44 q 215 257 280 380 q 344 501 372 586 q 404 682 384 740 q 364 801 312 809 q 291 813 262 806 q 235 799 205 783 q 146 751 98 700 q 49 649 31 592 q 15 538 44 508 q 80 473 180 474 q 191 474 196 465 q 200 456 196 448 q 191 439 180 439 q 151 438 128 441 q 34 451 3 504 q -24 551 3 617 q 30 683 86 739 q 143 795 210 824 q 284 857 337 839 q 399 818 421 739 q 440 672 401 563 q 369 469 298 339 q 290 325 266 283 q 267 284 268 285 l 271 288 q 419 465 550 580 q 571 599 590 614 q 609 630 640 652 q 670 674 696 688 q 723 702 754 712 q 786 722 811 720 q 836 718 860 702 q 884 686 899 653 z"},"R":{"x_min":0,"x_max":776,"ha":776,"o":"m 390 639 q 371 609 333 545 q 285 465 180 287 q 75 109 18 16 q 12 7 3 8 q -6 8 -12 16 q -18 24 -12 33 q 23 92 75 179 q 103 227 163 329 q 223 431 270 509 q 316 587 360 657 q 369 672 384 663 q 398 653 390 639 z m 776 745 q 806 693 792 623 q 776 547 712 463 q 659 394 584 347 q 466 274 342 268 q 352 190 360 163 q 375 113 400 97 q 430 77 487 100 q 497 104 503 98 q 509 91 508 80 q 506 70 496 66 q 469 55 445 53 q 354 44 323 164 q 315 196 306 268 q 260 271 237 287 q 221 299 218 316 q 215 333 226 349 q 236 365 254 377 q 271 389 287 388 q 316 386 328 342 q 333 326 337 303 q 347 304 349 304 q 480 313 595 397 q 661 445 707 517 q 757 595 761 654 q 765 709 731 746 q 697 783 640 799 q 522 833 378 790 q 252 753 139 650 q 113 626 100 609 q 92 598 89 591 q 88 587 87 583 q 88 582 88 582 q 94 580 102 579 q 126 578 174 589 q 191 592 196 575 q 200 558 184 555 q 131 543 104 544 q 78 545 62 560 q 47 574 55 599 q 60 615 74 634 q 89 652 100 662 q 110 671 130 688 q 262 800 402 833 q 569 871 689 819 q 749 792 776 745 z m 266 311 q 280 306 301 304 q 300 311 298 317 q 296 326 294 333 q 292 340 291 342 q 291 343 289 346 q 287 350 287 351 q 286 351 285 352 q 284 352 284 352 q 281 352 275 348 q 262 340 255 329 q 254 328 253 325 q 253 324 252 322 q 252 321 252 321 l 252 321 l 253 320 l 256 317 q 261 313 266 311 z m 252 321 q 252 321 252 322 q 252 321 252 321 z"},"T":{"x_min":0,"x_max":369,"ha":369,"o":"m 873 842 q 876 847 882 849 q 887 851 892 850 q 897 848 901 844 q 905 841 906 835 q 907 829 904 824 q 833 702 602 727 q 545 733 437 757 q 409 703 369 618 q 300 471 210 266 q 205 256 188 218 q 172 181 165 165 q 158 149 145 120 q 132 90 122 66 q 112 42 102 18 q 98 8 88 6 q 78 4 71 10 q 64 17 68 27 q 82 61 117 143 q 188 306 268 482 q 356 676 401 765 q 275 793 198 793 q 129 792 81 775 q 41 760 23 734 q 7 712 8 687 q 10 662 28 643 q 46 624 73 618 q 102 611 139 626 q 149 629 156 622 q 162 616 160 606 q 158 595 149 592 q 110 575 66 584 q 23 592 -3 626 q -24 653 -26 688 q -28 722 -8 751 q 39 821 175 827 q 237 830 308 818 q 378 806 458 788 q 537 770 589 763 q 632 758 667 758 q 702 757 744 762 q 787 768 820 788 q 854 808 873 842 z"},"P":{"x_min":0,"x_max":801,"ha":801,"o":"m 706 804 q 754 779 782 736 q 809 692 812 639 q 817 534 746 429 q 690 345 602 284 q 515 224 419 210 q 325 195 269 235 q 217 273 207 350 q 85 143 23 40 q 16 32 7 32 q -2 32 -8 40 q -13 49 -7 58 q 28 117 80 204 q 107 250 150 322 q 192 394 222 445 q 252 496 292 562 q 331 627 365 682 q 374 697 389 687 q 402 678 395 664 q 377 635 338 570 q 312 526 234 395 q 240 390 240 381 q 241 287 304 255 q 362 226 455 254 q 512 270 564 302 q 617 334 660 378 q 703 422 732 473 q 791 576 774 663 q 768 692 752 716 q 736 741 713 758 q 690 775 661 786 q 490 849 240 744 q 119 694 69 643 q 58 632 52 621 q 50 615 52 612 q 52 610 55 608 q 59 605 66 602 q 80 597 106 594 q 116 593 120 584 q 125 575 120 566 q 116 558 106 559 q 74 562 58 568 q 17 582 16 613 q 15 639 46 670 q 106 728 242 783 q 374 836 490 842 q 620 849 706 804 z"},"|":{"x_min":0,"x_max":193,"ha":193,"o":"m 155 722 q 160 731 169 731 q 178 731 184 722 q 190 714 185 704 q 150 627 127 530 q 104 433 84 322 q 64 212 44 143 q 41 132 31 130 q 21 129 14 136 q 7 142 10 152 q 27 211 44 294 q 61 377 72 441 q 83 505 104 582 q 126 660 155 722 z"},"t":{"x_min":0,"x_max":370,"ha":370,"o":"m 396 878 q 413 886 422 874 q 431 863 426 847 q 419 827 389 777 q 363 735 323 679 q 276 610 243 566 q 287 574 349 573 q 360 573 364 564 q 369 556 364 547 q 360 538 349 538 q 283 539 242 531 q 228 528 208 522 q 204 516 201 513 q 124 367 70 238 q 39 164 32 132 q 37 135 40 137 q 53 146 70 159 q 189 254 354 426 q 359 431 364 432 q 370 432 374 429 q 378 426 381 422 q 384 418 384 412 q 383 406 379 401 q 371 393 359 380 q 279 299 200 226 q 148 178 111 147 q 65 109 43 98 q 35 93 26 91 q 18 89 10 92 q 1 94 -3 104 q -9 116 -1 144 q 10 189 55 290 q 102 398 156 504 q 146 500 137 497 q 133 495 128 496 q 124 498 120 502 q 117 505 116 509 q 111 524 128 530 q 163 544 181 550 q 226 636 265 702 q 323 801 361 846 q 382 871 396 878 z m 29 116 z m 411 846 z"},"M":{"x_min":0,"x_max":1097,"ha":1097,"o":"m 1081 406 q 1087 415 1096 415 q 1104 415 1110 406 q 1116 398 1111 389 q 1108 381 1094 354 q 1080 326 1075 316 q 1070 305 1058 282 q 1045 258 1037 244 q 1029 230 1017 212 q 1005 193 994 178 q 982 161 968 147 q 955 133 936 120 q 918 107 900 110 q 881 112 867 134 q 856 151 851 195 q 848 232 849 292 q 852 402 870 546 q 876 596 881 633 q 825 526 710 328 q 595 129 545 37 q 538 24 524 30 q 509 36 513 50 q 531 124 548 233 q 575 412 602 729 q 505 522 395 340 q 328 230 269 153 q 202 66 148 25 q 89 -19 44 -5 q 27 0 16 14 q 5 28 0 44 q -4 60 -6 79 q -9 136 16 214 q 41 288 77 336 q 121 394 164 385 q 210 375 234 285 q 237 275 230 268 q 222 261 212 263 q 203 265 200 276 q 188 322 172 340 q 168 344 166 346 q 162 348 159 350 q 153 352 147 350 q 132 346 113 325 q 96 306 79 273 q 50 217 36 151 q 22 83 36 48 q 42 33 52 29 q 67 24 88 31 q 128 45 186 108 q 249 176 302 257 q 355 338 418 449 q 527 641 612 836 q 617 848 632 844 q 646 840 645 827 q 643 810 640 776 q 638 743 637 728 q 622 540 604 392 q 587 243 571 157 q 602 212 678 342 q 753 471 806 568 q 860 665 905 758 q 912 772 926 766 q 941 759 937 744 q 919 669 903 527 q 887 391 884 290 q 883 235 886 199 q 888 181 890 169 q 893 156 897 151 q 901 147 904 146 q 904 145 908 145 q 918 147 931 158 q 956 181 989 234 q 1019 281 1081 406 z"},"g":{"x_min":0,"x_max":432,"ha":432,"o":"m 422 412 q 431 418 440 412 q 448 407 448 398 q 448 389 440 382 q 358 329 277 258 q 255 218 230 177 q 185 103 146 49 q 106 -5 59 -46 q 13 -87 -12 -86 q -31 -84 -34 -66 q -37 -49 -29 -36 q -16 -6 26 48 q 69 103 128 164 q 186 226 249 280 q 267 314 279 341 q 285 354 291 368 q 274 359 247 344 q 244 342 240 341 q 239 340 236 339 q 234 338 232 336 q 230 335 228 334 q 174 308 144 302 q 107 295 88 308 q 64 324 85 357 q 116 405 196 449 q 254 481 276 461 q 295 442 278 400 q 300 413 312 419 q 320 424 330 419 q 340 414 338 404 q 335 377 316 336 q 370 379 422 412 z m 252 434 z m 120 334 q 131 334 152 340 q 183 350 222 370 q 248 414 250 433 q 248 433 248 433 q 216 428 160 384 q 143 370 129 355 q 128 355 114 335 q 115 335 117 335 q 120 334 120 334 z m 71 15 q 129 80 188 176 q 161 148 140 127 q 87 70 50 22 q 40 9 34 2 q 29 -6 21 -18 q 13 -31 7 -41 q 35 -25 71 15 z"},"j":{"x_min":0,"x_max":376,"ha":376,"o":"m 358 412 q 368 414 375 406 q 382 399 380 390 q 378 380 367 378 q 308 365 244 311 q 153 134 102 54 q 64 -7 41 -27 q 32 -36 20 -40 q 8 -45 -3 -41 q -14 -37 -18 -23 q -19 -18 -20 -13 q -20 -8 -19 -2 q -18 4 -17 8 q -16 13 -14 20 q -11 26 -10 30 q -8 35 -5 41 q -2 47 0 50 q 2 54 5 60 q 8 67 10 69 q 43 134 96 203 q 156 281 215 332 q 260 419 268 435 q 300 496 312 514 q 321 529 327 532 q 338 538 347 532 q 356 525 355 513 q 354 501 343 497 q 342 496 341 495 q 334 484 319 456 q 303 427 279 379 q 320 404 358 412 z m 345 501 q 346 501 346 502 q 346 502 345 501 z m 346 502 z m 346 502 z m 16 -15 z m 58 50 q 87 94 129 169 q 141 192 160 227 q 124 184 93 139 q 44 68 25 19 q 22 11 19 0 q 26 7 31 12 q 42 26 58 50 z m 394 586 q 395 583 394 579 q 394 576 392 573 q 388 566 379 552 q 377 548 373 546 q 370 544 368 544 q 362 542 355 546 q 352 547 350 550 q 348 553 347 556 q 346 560 347 563 q 347 567 349 570 q 358 583 362 590 q 364 594 368 597 q 371 598 373 598 q 379 600 386 597 q 389 595 391 592 q 393 590 394 586 z"},"i":{"x_min":0,"x_max":197,"ha":197,"o":"m 202 415 q 207 411 208 403 q 208 395 202 391 q 162 357 101 317 q 68 296 48 287 q 16 272 2 284 q -16 298 -2 335 q 8 362 32 400 q 32 401 34 403 q 35 405 36 406 q 36 413 43 417 q 60 442 75 463 q 84 475 94 488 q 107 505 120 501 q 149 493 119 445 q 96 409 68 392 q 54 370 44 352 q 41 345 37 338 q 34 332 33 329 q 30 322 29 317 q 29 317 29 317 q 35 319 38 321 q 48 326 60 333 q 81 346 110 365 q 132 381 154 397 q 158 400 164 405 q 164 405 166 406 q 168 408 168 408 q 174 413 177 415 q 191 427 202 415 z m 99 483 z m 137 516 q 134 520 134 525 q 134 532 140 538 q 141 539 144 542 q 146 544 147 545 q 156 555 159 558 q 163 563 171 563 q 178 564 184 558 q 186 556 187 553 q 189 549 189 546 q 189 539 184 533 q 182 532 178 528 q 175 524 174 523 q 174 522 174 522 q 174 521 174 520 q 174 517 172 514 q 168 508 161 506 q 156 504 150 506 q 146 507 142 510 q 139 512 137 516 z m 152 540 q 154 540 157 540 q 156 540 156 540 q 156 540 156 540 q 155 540 152 540 z"},"y":{"x_min":0,"x_max":442,"ha":442,"o":"m 437 425 q 447 428 454 421 q 460 414 458 404 q 456 394 446 391 q 445 391 445 391 q 445 390 444 390 q 440 388 436 386 q 429 382 417 374 q 396 360 366 338 q 308 295 241 236 q 239 232 230 218 q 221 205 216 198 q 103 32 38 -40 q -4 -87 -20 -60 q -37 -31 5 35 q 42 93 93 146 q 144 198 216 260 q 216 261 218 263 l 220 267 q 268 340 299 394 q 299 395 304 402 q 308 410 310 414 q 278 386 254 374 q 196 342 178 374 q 164 398 191 441 q 216 482 245 491 q 255 494 262 487 q 268 480 266 470 q 265 461 254 457 q 239 453 221 424 q 213 411 210 401 q 210 400 210 398 q 209 395 209 394 q 209 394 210 394 l 211 394 q 212 395 217 396 q 222 397 225 398 q 243 406 267 424 q 280 434 306 457 q 333 480 347 492 q 357 499 366 490 q 376 482 373 472 q 364 437 319 358 q 316 354 310 346 q 305 337 303 333 q 335 359 358 375 q 360 377 372 386 q 384 395 388 398 q 393 401 403 408 q 413 414 421 418 q 429 422 437 425 z m 208 393 z m -7 -35 l -8 -35 z m 12 -45 q 14 -46 11 -43 q 11 -45 12 -45 z m 24 -2 q 41 18 42 19 q 76 61 117 117 q 117 117 116 116 q 115 115 115 115 q 56 52 30 8 q 26 2 24 -2 z"},"@":{"x_min":0,"x_max":526,"ha":526,"o":"m 468 283 q 477 288 486 282 q 494 276 494 268 q 494 259 485 253 q 308 159 190 173 q 133 180 92 217 q 51 254 32 306 q 13 358 16 414 q 21 506 75 578 q 129 651 216 680 q 257 694 304 695 q 350 696 394 684 q 437 673 468 641 q 499 609 505 562 q 512 512 498 464 q 483 415 446 388 q 428 375 407 372 q 386 370 366 381 q 355 387 347 398 q 310 361 256 360 q 216 360 190 381 q 164 402 186 444 q 200 469 226 488 q 252 508 280 516 q 308 523 334 511 q 360 499 372 465 q 375 457 370 450 q 375 444 372 437 q 369 428 375 420 q 381 411 391 408 q 410 403 432 421 q 461 447 469 500 q 478 557 461 593 q 443 628 397 646 q 328 671 254 654 q 180 638 128 588 q 75 537 58 462 q 41 386 65 316 q 76 285 100 258 q 123 230 152 218 q 198 200 265 210 q 357 225 468 283 z m 267 396 q 284 398 298 406 q 312 413 323 424 q 334 436 340 451 q 340 451 341 451 q 339 455 338 455 q 331 476 315 482 q 299 488 282 480 q 264 473 248 461 q 232 449 222 436 q 215 425 213 419 q 211 414 212 410 q 213 407 216 406 q 218 404 223 401 q 244 393 267 396 z"},"p":{"x_min":0,"x_max":427,"ha":427,"o":"m 420 476 q 442 445 435 412 q 428 380 401 354 q 375 329 341 314 q 307 299 277 307 q 248 315 240 345 q 202 295 161 234 q 105 153 58 79 q 57 77 56 76 q 55 74 54 73 q 54 72 53 70 q 52 69 51 67 q 29 29 10 -2 q 2 -15 -11 -9 q -24 -3 -22 11 q -21 18 -18 25 q -14 32 -8 42 q -1 51 1 53 q 4 58 10 68 q 16 77 18 80 q 58 149 147 313 q 156 331 175 366 q 194 402 206 424 q 217 446 235 476 q 253 505 269 528 q 279 542 295 533 q 308 523 300 511 q 267 465 225 386 q 259 432 287 456 q 375 530 420 476 z m 325 346 q 345 354 364 368 q 384 382 396 404 q 409 427 398 447 q 390 461 376 463 q 363 465 348 456 q 333 448 322 440 q 310 431 300 421 q 289 410 274 390 q 266 355 280 344 q 293 334 325 346 z"},"X":{"x_min":0,"x_max":553,"ha":553,"o":"m 590 806 q 599 812 608 806 q 616 800 616 791 q 616 782 608 776 q 551 741 500 669 q 466 621 411 524 q 356 428 346 413 q 347 411 348 408 q 349 404 350 402 q 405 247 448 172 q 475 123 502 97 q 532 69 560 66 q 570 65 574 56 q 579 47 575 38 q 571 30 560 31 q 514 35 480 69 q 446 103 417 155 q 369 239 322 373 q 189 170 -2 23 q -16 13 -24 28 q -33 44 -20 54 q 100 146 194 258 q 249 325 307 416 q 249 584 234 623 q 222 654 217 666 q 212 678 200 703 q 189 728 176 745 q 164 762 150 776 q 146 780 140 783 q 138 785 135 786 q 134 787 132 787 q 122 790 114 787 q 104 784 93 774 q 80 762 67 743 q 61 734 51 735 q 41 736 36 744 q 32 751 37 761 q 71 812 105 821 q 139 831 172 804 q 178 798 184 791 q 191 784 196 778 q 202 772 208 762 q 214 753 218 747 q 221 741 226 730 q 232 718 234 713 q 237 708 242 695 q 248 682 250 678 q 251 675 256 661 q 262 647 263 644 q 285 591 331 456 q 353 492 406 585 q 429 624 444 648 q 460 673 484 706 q 507 738 534 763 q 560 788 590 806 z"},"*":{"x_min":0,"x_max":302,"ha":302,"o":"m 281 688 q 292 688 296 679 q 300 670 296 662 q 292 653 281 653 q 233 655 176 659 q 201 619 222 594 q 234 581 222 569 q 217 564 210 564 q 202 564 197 569 q 174 597 144 644 q 120 615 74 570 q 70 565 64 564 q 58 564 54 567 q 49 570 46 574 q 43 579 44 584 q 45 590 49 595 q 90 635 113 663 q 62 668 22 672 q 4 674 4 690 q 4 697 10 702 q 15 708 22 707 q 61 703 110 699 q 83 740 61 766 q 50 779 61 791 q 66 796 74 796 q 81 796 86 791 q 111 762 145 707 q 175 755 176 797 q 176 808 185 812 q 194 816 202 812 q 211 808 211 797 q 209 746 178 694 q 234 690 281 688 z"},"Y":{"x_min":0,"x_max":506,"ha":506,"o":"m 508 421 q 518 419 522 410 q 527 401 523 392 q 519 384 508 385 q 479 388 453 387 q 400 385 347 364 q 332 333 318 304 q 255 175 191 65 q 125 -48 76 -110 q 64 -124 58 -131 q 52 -138 38 -150 q 25 -162 12 -166 q 0 -171 -13 -168 q -50 -160 -40 -87 q -30 -23 11 64 q 56 159 123 238 q 212 344 320 391 q 321 392 323 396 q 383 525 419 628 q 434 671 442 697 q 386 608 326 556 q 261 500 207 504 q 154 508 127 560 q 106 600 106 650 q 105 700 119 744 q 133 789 156 830 q 163 838 172 838 q 181 838 186 830 q 192 821 187 812 q 146 741 142 669 q 139 608 161 571 q 183 535 222 539 q 267 544 326 604 q 393 674 467 810 q 473 821 487 818 q 501 814 499 801 q 498 782 494 761 q 479 683 430 556 q 403 487 366 407 q 437 428 508 421 z m 88 -33 q 191 118 297 341 q 199 286 120 178 q 63 101 28 16 q -5 -63 -7 -111 q -7 -116 -7 -122 q -7 -126 -6 -128 l -6 -129 l -5 -134 q -4 -134 -4 -134 q -4 -134 -5 -134 l -5 -134 l -4 -134 q -3 -134 -1 -133 l 0 -133 l 5 -130 q 13 -126 21 -117 q 30 -109 42 -96 q 62 -72 88 -33 z"},"!":{"x_min":0,"x_max":303,"ha":303,"o":"m 277 671 q 279 681 288 683 q 298 685 306 678 q 313 672 311 662 q 309 652 305 641 q 301 630 297 622 q 293 614 287 602 q 281 589 278 583 q 245 513 155 333 q 115 253 101 225 q 89 200 83 189 q 79 180 78 178 q 78 177 78 176 q 76 166 66 164 q 57 162 50 168 q 42 175 44 186 q 45 192 48 198 q 50 205 54 212 q 57 219 60 225 q 64 231 68 238 q 72 245 74 250 q 92 286 133 368 q 174 450 196 494 q 232 566 251 609 q 254 614 259 624 q 264 634 266 640 q 269 646 272 654 q 276 663 277 671 z m 78 178 z m 45 86 q 50 81 52 74 q 54 62 48 51 q 43 40 30 36 q 27 36 22 35 q 20 35 19 35 q 13 35 8 37 q -3 41 -10 49 q -14 54 -16 59 q -19 65 -19 72 q -20 83 -13 93 q -9 99 -2 104 q 1 106 7 109 q 18 113 30 110 q 46 105 42 88 q 45 86 45 86 z"},"/":{"x_min":0,"x_max":469,"ha":469,"o":"m 440 691 q 447 700 456 697 q 465 694 468 685 q 471 676 465 667 q 237 382 0 105 q -7 97 -16 100 q -25 103 -28 112 q -30 121 -24 130 q 212 407 440 691 z"},"[":{"x_min":0,"x_max":357,"ha":357,"o":"m 359 790 q 368 784 367 774 q 366 764 358 760 q 351 755 341 759 q 317 771 296 770 q 276 768 256 752 q 237 737 224 719 q 210 701 200 681 q 187 652 173 620 q 159 587 142 544 q 126 501 118 481 q 82 392 74 375 q 48 311 42 279 q 36 250 39 225 q 41 208 47 205 q 51 202 68 205 q 116 214 161 243 q 170 249 178 244 q 186 238 186 229 q 187 220 179 213 q 130 181 78 172 q 22 161 9 198 q 3 215 2 234 q 1 254 4 270 q 6 286 12 308 q 19 331 24 344 q 29 356 38 378 q 39 380 40 382 q 40 383 40 384 q 41 386 42 387 q 56 422 84 491 q 112 560 126 594 q 129 602 142 636 q 156 669 162 684 q 169 698 182 722 q 196 745 211 761 q 240 792 280 801 q 321 810 359 790 z"},"6":{"x_min":0,"x_max":508,"ha":508,"o":"m 493 731 q 502 728 504 718 q 506 707 500 700 q 493 694 483 697 q 436 713 393 708 q 350 703 308 678 q 267 653 234 622 q 202 590 176 553 q 81 414 50 291 q 31 219 76 179 q 111 148 157 147 q 223 145 284 194 q 346 244 357 309 q 358 326 357 344 q 356 363 344 375 q 332 387 312 382 q 286 375 264 352 q 242 329 242 304 q 242 293 234 288 q 225 284 216 288 q 207 293 207 304 q 207 329 222 354 q 236 378 258 394 q 281 411 306 416 q 335 423 356 410 q 378 396 386 372 q 395 347 393 319 q 388 239 318 178 q 248 116 167 112 q 107 109 58 148 q -4 198 12 285 q 22 341 68 435 q 113 528 161 592 q 191 631 227 662 q 263 694 308 717 q 352 740 398 744 q 444 748 493 731 z"},"r":{"x_min":0,"x_max":267,"ha":267,"o":"m 257 431 q 267 433 274 426 q 281 418 279 408 q 277 399 266 397 q 201 383 181 419 q 176 428 173 443 q 171 451 171 453 q 170 453 169 453 q 168 452 166 451 q 154 445 138 430 q 90 385 23 286 q 14 272 0 280 q -14 289 -7 304 q 7 333 35 404 q 65 481 70 501 q 73 512 82 514 q 92 516 100 509 q 107 502 104 492 q 98 466 78 419 q 102 446 122 463 q 164 499 189 486 q 196 482 200 476 q 203 471 206 458 q 209 444 209 443 q 210 438 212 434 q 214 432 218 430 q 229 425 257 431 z m 170 457 q 170 457 170 458 q 169 458 169 459 q 170 458 170 457 z m 174 454 z"},"2":{"x_min":0,"x_max":490,"ha":490,"o":"m 418 435 q 343 324 206 221 q 190 209 172 196 q 175 195 189 190 q 203 184 208 182 q 212 180 224 176 q 237 172 244 171 q 250 170 261 168 q 272 166 280 166 q 287 167 296 169 q 305 171 314 175 q 329 182 338 167 q 347 152 332 145 q 311 136 290 134 q 270 131 245 136 q 220 142 207 146 q 194 151 164 162 q 147 169 136 172 q 110 156 89 144 q 49 122 33 121 q 17 120 5 130 q -7 139 -5 155 q -2 172 14 186 q 30 200 49 207 q 84 219 128 210 q 128 210 129 210 q 180 243 226 281 q 338 374 396 466 q 468 579 436 673 q 424 710 394 727 q 364 744 326 736 q 265 722 215 641 q 210 632 200 633 q 189 634 184 642 q 180 649 185 659 q 248 762 333 772 q 381 778 418 754 q 455 729 470 683 q 508 568 418 435 z m 47 167 q 45 166 44 164 q 42 162 40 160 q 38 158 36 157 q 45 159 78 178 q 60 175 47 167 z"},"{":{"x_min":0,"x_max":376,"ha":376,"o":"m 379 741 q 389 727 374 718 q 359 711 349 723 q 310 776 260 710 q 210 644 202 590 q 196 550 190 537 q 178 510 155 485 q 154 483 148 477 q 177 440 159 383 q 154 365 124 317 q 95 269 94 238 q 93 199 111 177 q 131 153 166 176 q 175 182 183 176 q 191 171 192 162 q 192 153 183 146 q 149 123 116 134 q 84 144 69 182 q 40 251 94 334 q 102 346 105 351 q 108 356 116 369 q 123 382 125 390 q 127 398 130 409 q 133 420 132 430 q 130 440 125 449 q 125 450 122 453 q 86 426 53 426 q 31 427 14 444 q -3 460 5 480 q 16 507 64 510 q 94 512 120 499 q 142 520 154 544 q 163 560 167 592 q 174 644 209 700 q 247 760 290 775 q 340 793 379 741 z m 38 470 z m 37 466 z m 51 462 q 57 461 68 464 q 77 467 88 473 q 77 475 66 475 q 50 474 41 469 q 40 469 40 468 q 48 462 51 462 z"},"9":{"x_min":0,"x_max":406,"ha":406,"o":"m 384 748 q 402 688 389 600 q 365 442 267 298 q 158 140 26 112 q 16 110 10 118 q 3 125 5 134 q 7 144 17 146 q 88 161 152 218 q 261 315 321 480 q 346 547 355 601 q 331 557 297 524 q 248 474 188 458 q 117 439 76 462 q 56 473 46 497 q 37 521 38 544 q 38 567 44 592 q 56 638 84 678 q 112 719 151 745 q 199 776 258 779 q 316 782 368 760 q 380 760 384 748 z m 293 571 q 322 606 340 649 q 358 692 352 729 q 237 769 156 705 q 92 654 76 573 q 69 541 76 516 q 83 494 101 489 q 152 475 204 500 q 256 526 293 571 z"}," ":{"x_min":0,"x_max":204,"ha":204,"o":""},"I":{"x_min":0,"x_max":409,"ha":409,"o":"m 416 747 q 439 679 406 575 q 378 484 310 354 q 293 322 275 290 q 257 257 234 218 q 211 180 198 158 q 184 137 154 89 q 125 41 116 27 q 110 18 100 19 q 90 20 86 28 q 81 35 86 45 q 90 51 96 61 q 224 263 290 393 q 351 513 376 596 q 403 689 378 748 q 367 776 347 792 q 330 805 307 809 q 260 815 198 783 q 140 753 92 704 q 45 655 28 600 q 14 551 43 523 q 78 489 178 490 q 185 490 189 486 q 193 483 194 478 q 195 473 194 468 q 193 463 189 459 q 185 455 178 455 q 149 455 126 457 q 33 467 2 517 q -26 562 0 626 q 17 668 49 707 q 81 746 120 776 q 159 805 202 824 q 274 855 328 840 q 391 822 416 747 z"},"H":{"x_min":0,"x_max":845,"ha":845,"o":"m 879 802 q 836 703 796 620 q 749 522 681 393 q 699 396 840 417 q 850 419 856 411 q 863 403 861 394 q 859 385 849 383 q 795 375 760 370 q 714 363 661 356 q 642 321 607 256 q 572 190 544 138 q 515 85 491 37 q 485 28 476 28 q 467 28 462 36 q 456 45 460 55 q 475 85 485 109 q 539 247 504 335 q 447 328 405 324 q 320 314 269 310 q 180 145 117 20 q 111 11 102 11 q 94 11 88 20 q 82 28 87 38 q 135 134 186 230 q 189 236 227 308 q 167 305 125 306 q 69 307 37 315 q 1 324 -9 344 q -18 364 -7 388 q 4 411 23 427 q 106 498 264 496 q 296 496 327 491 q 471 754 517 839 q 523 848 532 848 q 540 848 546 840 q 552 831 547 821 q 506 745 455 651 q 440 623 409 568 q 378 512 363 484 q 463 459 513 391 q 519 382 525 372 q 571 378 636 387 q 770 640 849 819 q 854 828 862 828 q 871 829 877 820 q 883 811 879 802 z m 23 360 z m 211 343 q 218 343 230 344 q 243 344 247 345 q 279 405 309 458 q 271 462 233 460 q 93 453 37 391 q 26 379 23 364 l 23 359 q 24 358 24 358 q 24 358 27 356 q 30 354 34 352 q 56 344 103 342 q 147 339 211 343 z m 288 347 q 377 354 487 367 q 476 382 465 393 q 420 436 346 452 q 308 384 288 347 z m 562 248 q 590 300 617 350 q 581 345 540 340 q 558 290 551 227 q 553 231 556 238 q 560 245 562 248 z"},"4":{"x_min":0,"x_max":578,"ha":578,"o":"m 543 761 q 550 770 560 769 q 570 768 574 760 q 579 753 574 743 q 566 733 558 720 q 551 707 542 691 q 533 675 528 667 q 427 495 335 339 q 280 244 249 190 q 230 156 221 142 q 218 136 214 128 q 212 125 212 125 q 213 131 213 135 q 215 118 198 113 q 181 108 179 125 q 177 135 190 158 q 199 175 221 213 q 276 309 369 466 q 329 469 282 469 q 234 469 197 468 q 160 467 109 466 q 58 464 24 464 q 13 464 8 476 q 3 487 11 494 q 62 540 121 584 q 180 627 261 682 q 342 738 377 763 q 385 769 394 764 q 402 758 402 749 q 402 740 394 732 q 359 707 292 661 q 225 615 171 576 q 117 538 72 500 q 92 501 148 502 q 205 504 234 504 q 262 505 306 504 q 351 503 389 500 q 393 507 402 523 q 412 539 417 547 q 466 632 505 697 q 542 759 543 761 z"},"D":{"x_min":0,"x_max":919,"ha":919,"o":"m 921 415 q 936 417 937 402 q 939 385 924 381 q 922 380 921 380 q 881 375 839 368 q 824 366 779 357 q 751 314 717 277 q 631 186 491 117 q 370 57 239 25 q 118 -4 47 2 q 15 5 -6 20 q -28 36 -12 65 q 4 92 63 134 q 84 149 113 166 q 130 197 193 316 q 256 435 283 488 q 310 541 354 634 q 397 726 428 803 q 404 799 379 792 q 354 785 335 778 q 316 771 288 758 q 261 744 246 737 q 232 730 202 712 q 172 694 162 688 q 152 681 118 660 q 85 639 78 635 q 73 632 68 632 q 62 633 58 637 q 55 641 54 646 q 52 651 54 656 q 55 662 61 665 q 138 714 151 722 q 269 794 354 822 q 396 835 443 842 q 448 852 459 852 q 470 853 475 845 q 528 850 578 844 q 647 837 706 808 q 765 778 806 724 q 846 670 851 601 q 857 502 802 397 q 869 409 921 415 z m 468 809 q 448 757 422 700 q 397 643 378 604 q 360 564 325 495 q 290 426 277 400 q 264 375 220 293 q 177 211 169 196 q 185 204 193 208 q 344 281 547 338 q 651 367 757 389 q 784 433 800 479 q 815 525 817 576 q 819 627 799 669 q 778 714 740 746 q 702 777 658 790 q 614 804 564 810 q 513 815 468 809 z m 16 45 l 17 46 l 16 46 z m 16 47 l 16 46 l 16 45 q 16 46 16 46 z m 718 332 q 723 338 730 347 q 606 321 486 283 q 299 225 172 158 q 156 150 140 141 q 115 93 115 93 q 108 80 94 86 q 81 92 83 105 q 70 96 60 88 q 40 72 24 54 q 20 50 18 46 q 18 46 17 45 q 18 45 19 44 q 21 43 22 43 q 21 43 22 42 q 24 42 26 41 q 29 40 29 40 q 49 35 89 37 q 173 41 286 75 q 414 113 521 173 q 647 243 718 332 z m 16 46 z"},"^":{"x_min":0,"x_max":215,"ha":215,"o":"m 206 658 q 210 653 210 648 q 211 642 208 638 q 205 633 201 630 q 197 627 191 628 q 185 628 181 633 q 160 654 154 699 q 154 703 152 714 q 151 725 150 732 q 149 739 142 760 q 137 757 137 757 q 128 751 120 745 q 105 733 90 719 q 58 690 34 659 q 24 645 10 653 q 5 656 2 664 q 0 671 4 677 q 35 717 69 748 q 85 762 105 777 q 106 778 110 782 q 115 785 116 786 q 118 787 123 790 q 128 793 130 794 q 132 794 136 796 q 141 799 144 798 q 146 797 151 797 q 161 795 168 788 q 175 780 178 766 q 182 753 184 746 q 185 738 187 724 q 187 722 188 711 q 189 700 190 696 q 191 691 192 682 q 194 674 198 668 q 201 663 206 658 z"},"0":{"x_min":0,"x_max":489,"ha":489,"o":"m 460 693 q 469 667 470 630 q 471 592 468 565 q 465 485 448 412 q 430 340 388 270 q 347 200 286 157 q 252 134 216 125 q 179 116 141 124 q 103 132 74 159 q 52 181 38 208 q 24 236 19 266 q 14 296 15 326 q 16 356 23 387 q 35 440 66 523 q 96 602 129 655 q 176 731 228 758 q 294 792 365 754 q 369 751 372 746 q 392 750 410 744 q 427 738 440 725 q 453 712 460 693 z m 430 523 q 435 570 434 622 q 434 623 434 632 q 433 642 433 644 q 433 647 432 656 q 432 665 431 668 q 430 672 428 680 q 426 687 424 691 q 421 695 417 700 q 413 704 409 707 q 387 720 364 708 q 340 695 328 671 q 324 664 320 654 q 315 644 310 630 q 306 617 307 606 q 308 595 316 591 q 325 586 326 578 q 326 569 317 563 q 308 557 299 561 q 255 580 285 661 q 302 707 333 730 q 280 752 231 719 q 189 690 148 618 q 103 537 67 415 q 27 280 81 204 q 102 175 133 164 q 164 152 196 157 q 227 162 258 181 q 299 206 331 246 q 363 285 382 332 q 402 378 414 426 q 426 473 430 523 z"},"F":{"x_min":0,"x_max":442,"ha":442,"o":"m 432 408 q 443 411 450 403 q 456 395 454 386 q 452 377 442 374 q 368 359 305 352 q 291 325 289 320 q 236 221 96 -5 q 91 -14 80 -13 q 70 -12 66 -4 q 62 3 66 13 q 67 15 76 29 q 193 215 263 348 q 234 346 206 346 q 171 346 159 348 q 142 352 144 368 q 147 384 164 384 q 169 384 172 382 q 181 381 184 381 q 208 380 238 382 q 258 382 283 385 q 337 490 364 569 q 370 587 374 600 q 378 612 383 630 q 388 649 390 664 q 391 678 391 696 q 391 713 387 727 q 370 798 320 813 q 275 826 213 797 q 152 770 101 720 q 50 671 30 614 q 21 587 24 566 q 26 547 41 532 q 76 496 178 497 q 189 497 194 488 q 198 480 194 471 q 189 462 178 462 q 148 462 125 464 q 30 475 0 527 q -26 574 4 643 q 33 707 92 760 q 151 813 220 838 q 293 865 347 840 q 378 825 398 794 q 417 762 424 724 q 435 661 393 546 q 367 475 324 390 q 377 396 432 408 z m 168 382 l 167 383 l 167 382 q 167 382 168 382 z"},"k":{"x_min":0,"x_max":339,"ha":339,"o":"m 319 424 q 327 431 337 428 q 347 424 349 416 q 351 407 344 399 q 240 308 138 313 q 91 315 58 333 q 39 307 24 279 q 17 266 2 272 q -12 278 -8 293 q 2 327 43 403 q 100 511 206 683 q 207 685 208 688 q 210 690 212 692 q 213 694 214 696 q 216 699 217 701 q 215 710 222 717 q 224 720 238 734 q 274 791 278 797 q 307 842 314 851 q 322 860 332 854 q 342 849 344 838 q 345 825 338 808 q 331 791 325 782 q 319 774 306 758 q 291 738 266 712 q 194 598 141 507 q 118 468 94 424 q 118 444 143 457 q 205 490 254 482 q 274 478 286 464 q 297 450 282 432 q 272 423 238 408 q 213 397 170 380 q 166 379 141 370 q 116 360 103 354 q 103 354 102 354 q 101 354 101 354 q 117 349 135 348 q 226 343 319 424 z m 258 458 z m 258 458 l 257 458 z m 237 448 q 175 449 115 396 q 119 398 129 402 q 139 406 145 408 q 220 437 240 448 q 240 448 239 448 q 238 448 237 448 z"},"u":{"x_min":0,"x_max":241,"ha":241,"o":"m 227 423 q 236 428 244 422 q 252 417 252 408 q 253 399 245 392 q 195 360 156 387 q 156 387 153 389 q 131 332 106 306 q 88 287 64 285 q 40 283 19 298 q -12 321 -3 369 q 4 402 29 443 q 38 458 48 470 q 57 483 66 485 q 80 489 86 474 q 91 460 79 453 q 79 453 78 452 q 77 451 77 451 q 76 450 75 448 q 74 447 74 447 q 73 446 73 446 q 72 446 72 445 q 63 432 55 419 q 37 386 31 360 q 30 354 30 348 q 30 344 30 341 q 30 339 31 338 q 31 337 32 335 l 32 334 q 32 334 33 333 q 34 332 34 332 q 37 328 45 323 q 52 320 59 319 q 64 319 69 321 q 80 326 91 343 q 107 367 133 433 q 135 438 138 442 q 146 451 158 444 q 171 437 167 425 q 168 423 169 422 l 169 422 q 171 420 173 418 q 175 416 179 414 q 198 404 227 423 z"},"]":{"x_min":0,"x_max":384,"ha":384,"o":"m 369 775 q 375 757 376 736 q 376 714 374 700 q 373 685 364 657 q 354 629 351 622 q 348 616 336 586 q 322 551 294 482 q 266 413 251 379 q 248 371 235 338 q 222 304 216 290 q 209 275 196 252 q 182 228 167 212 q 137 181 97 172 q 57 163 19 183 q 10 189 11 199 q 12 209 20 214 q 27 218 37 214 q 61 202 82 204 q 102 205 121 220 q 140 236 154 254 q 168 272 177 292 q 191 321 204 354 q 218 386 235 429 q 252 472 260 492 q 271 519 303 598 q 330 662 336 694 q 342 723 339 748 q 337 765 331 769 q 327 771 310 768 q 262 759 217 730 q 202 720 194 736 q 185 751 199 760 q 247 792 300 802 q 356 812 369 775 z"},"U":{"x_min":0,"x_max":810,"ha":810,"o":"m 809 423 q 819 426 826 420 q 832 413 830 402 q 828 392 819 389 q 746 361 694 351 q 629 340 588 353 q 555 298 517 245 q 456 159 400 104 q 335 41 278 21 q 215 -2 167 33 q 101 82 105 181 q 108 261 160 380 q 191 453 264 582 q 269 592 284 617 q 298 642 306 656 q 314 670 324 692 q 334 713 341 731 q 344 739 345 745 q 347 751 347 752 q 348 762 345 769 q 345 770 343 772 q 342 773 341 774 q 340 775 340 775 q 335 779 327 779 q 287 784 212 750 q 139 716 82 670 q 53 647 35 627 q 28 618 22 608 q 18 601 17 595 q 16 592 18 590 q 18 590 20 588 q 23 586 24 585 l 26 584 q 46 577 91 579 q 106 580 108 565 q 110 548 94 545 q 93 544 91 544 q 46 542 21 549 q -4 557 -14 577 q -23 597 -11 621 q 7 658 73 707 q 134 753 203 784 q 280 818 324 815 q 351 813 368 796 q 384 780 382 753 q 381 741 378 728 q 374 715 368 700 q 361 685 356 676 q 351 667 342 650 q 332 633 329 627 q 319 610 279 539 q 239 468 223 436 q 207 405 184 348 q 160 291 149 242 q 124 138 165 84 q 201 37 254 50 q 303 62 364 119 q 420 171 479 251 q 521 309 557 370 q 550 376 549 376 q 512 414 526 488 q 537 549 579 612 q 619 673 658 691 q 679 701 696 692 q 712 684 714 660 q 716 628 690 559 q 657 473 606 385 q 637 377 684 385 q 737 394 809 423 z m 681 662 z m 557 452 q 557 419 575 401 q 621 480 652 557 q 665 591 672 616 q 678 640 679 656 q 679 657 679 661 l 679 661 q 677 661 676 661 q 675 660 674 660 q 671 658 670 658 q 665 655 661 652 q 646 642 626 617 q 608 596 592 566 q 557 502 557 452 z"},"o":{"x_min":0,"x_max":204,"ha":204,"o":"m 198 426 q 209 426 214 418 q 218 409 214 400 q 209 391 198 391 q 194 391 180 391 q 165 391 157 391 q 151 377 140 359 q 126 334 114 318 q 102 302 80 288 q 58 275 34 279 q 14 281 4 296 q -7 311 -6 332 q -3 371 28 415 q 36 427 47 439 q 58 451 74 463 q 89 475 103 480 q 117 485 131 480 q 145 475 155 457 q 157 453 157 448 q 161 444 163 440 q 167 435 166 426 q 171 426 182 426 q 192 426 198 426 z m 131 427 z m 78 332 q 93 348 108 374 q 115 385 120 396 q 120 396 118 396 q 116 397 116 397 q 102 408 105 420 q 108 433 122 443 q 120 446 117 448 q 116 448 115 448 l 112 447 q 104 444 90 431 q 64 408 49 384 q 29 350 29 327 q 29 321 31 318 q 32 316 34 315 q 35 315 35 314 q 35 314 36 314 l 37 314 l 39 313 q 43 313 47 313 l 48 313 q 50 314 52 314 q 54 315 57 316 q 60 317 65 319 q 69 322 78 332 z"},"N":{"x_min":0,"x_max":942,"ha":942,"o":"m 941 421 q 952 422 956 414 q 960 405 956 396 q 952 387 941 386 q 837 378 785 402 q 633 147 574 38 q 567 26 554 30 q 542 34 541 46 q 537 84 532 156 q 520 341 519 499 q 519 629 524 692 q 449 518 449 517 q 336 266 249 134 q 192 48 147 10 q 91 -36 46 -20 q -11 2 -6 96 q -1 178 41 261 q 85 347 134 349 q 154 350 169 338 q 184 327 194 306 q 203 285 208 270 q 212 254 216 233 q 218 222 210 216 q 202 209 193 211 q 184 213 182 223 q 176 252 169 272 q 162 292 154 303 q 150 308 147 310 l 142 313 q 136 316 129 313 q 121 309 114 303 q 73 266 47 182 q 19 95 34 44 q 47 -2 92 16 q 128 30 178 95 q 221 150 274 243 q 352 381 451 608 q 463 635 513 751 q 540 814 546 824 q 554 837 568 831 q 582 825 579 811 q 564 753 558 652 q 550 506 560 289 q 565 171 571 104 q 628 208 756 422 q 735 443 732 473 q 725 540 802 631 q 831 666 863 690 q 894 714 913 713 q 930 713 936 698 q 941 682 935 668 q 930 654 917 629 q 896 591 854 520 q 839 494 803 433 q 808 431 812 429 q 857 415 941 421 z m 769 467 q 771 460 775 454 q 813 518 830 548 q 868 612 887 647 q 895 662 899 672 q 893 669 892 668 q 882 661 869 650 q 840 624 817 594 q 789 558 776 527 q 769 508 767 495 q 765 480 769 467 z"},"+":{"x_min":0,"x_max":236,"ha":236,"o":"m 215 607 q 226 608 230 600 q 235 591 230 582 q 226 573 215 572 q 183 570 126 574 q 105 526 79 484 q 73 475 63 476 q 53 477 48 484 q 44 492 48 502 q 69 535 88 576 q 48 578 20 576 q 10 576 6 584 q 1 593 6 602 q 10 611 20 611 q 52 614 104 610 q 121 651 132 685 q 135 695 144 697 q 154 699 162 692 q 169 686 166 676 q 156 645 141 608 q 186 605 215 607 z"},"G":{"x_min":0,"x_max":679,"ha":679,"o":"m 675 420 q 684 425 692 420 q 701 414 701 405 q 701 396 693 389 q 593 329 491 228 q 471 166 438 96 q 370 -51 298 -139 q 297 -140 295 -143 q 265 -180 244 -181 q 211 -182 220 -129 q 233 -53 290 39 q 341 122 422 208 q 440 227 462 248 q 478 300 482 343 q 406 243 286 186 q 247 167 208 156 q 169 145 123 146 q 77 148 44 169 q -21 212 3 323 q 22 409 92 522 q 153 620 233 694 q 384 836 498 829 q 548 826 586 794 q 625 761 619 713 q 611 648 529 567 q 459 499 385 458 q 375 453 364 448 q 352 443 336 439 q 319 435 309 440 q 299 446 300 463 q 300 476 313 479 q 326 482 332 473 q 337 475 340 476 q 347 478 360 485 q 387 499 420 522 q 493 574 541 633 q 599 703 581 745 q 574 762 556 774 q 537 786 517 791 q 467 803 400 771 q 291 719 190 599 q 138 537 92 452 q 80 430 70 409 q 61 388 49 358 q 37 327 34 301 q 31 275 33 250 q 35 225 52 208 q 70 191 101 185 q 206 166 339 257 q 390 292 431 337 q 470 379 482 409 q 488 423 502 421 q 515 419 517 404 q 523 357 509 293 q 593 370 675 420 z m 326 472 q 326 472 327 472 z m 253 -152 z m 298 -81 q 372 25 427 156 q 428 158 429 162 q 430 165 431 165 q 430 165 430 164 q 429 164 429 164 q 356 83 311 6 q 286 -38 271 -77 q 258 -112 254 -135 q 272 -119 298 -81 z"},"q":{"x_min":0,"x_max":401,"ha":401,"o":"m 399 426 q 414 428 416 412 q 418 396 402 391 q 401 391 399 391 q 401 391 402 391 q 400 390 396 388 l 391 386 q 379 379 362 369 q 246 298 156 194 q 155 193 151 187 q 147 181 145 178 q 143 174 132 156 q 121 138 118 133 q 114 128 104 112 q 94 96 90 89 q 85 82 76 68 q 67 53 62 45 q 57 37 49 24 q 41 10 36 0 q 30 -10 23 -22 q 16 -34 10 -45 q 3 -58 -12 -52 q -28 -45 -22 -31 q -22 -30 -22 -29 q -21 -28 -20 -27 l -20 -27 q 16 65 73 144 q 96 176 124 209 q 177 293 224 364 q 226 366 228 369 q 230 372 232 376 q 235 379 236 381 q 211 362 194 351 q 163 331 145 327 q 126 322 108 328 q 91 333 83 349 q 71 376 90 417 q 105 449 137 472 q 169 495 205 504 q 244 515 267 500 q 283 489 286 465 q 298 475 306 482 q 326 508 343 505 q 353 503 355 492 q 357 482 350 476 q 345 470 337 462 l 335 460 l 333 458 q 325 447 306 421 q 277 380 239 322 q 260 340 278 353 q 319 385 356 406 q 386 424 399 426 z m 176 381 q 209 403 252 438 q 251 442 252 446 q 256 474 232 474 q 209 473 176 454 q 150 440 131 418 q 112 397 114 372 q 114 365 118 362 q 122 358 128 359 q 135 360 141 362 q 147 364 156 369 q 164 374 168 376 q 171 378 176 381 z"},"d":{"x_min":0,"x_max":408,"ha":408,"o":"m 582 896 q 585 888 578 874 q 571 858 548 821 q 504 751 447 670 q 397 568 354 468 q 342 440 334 419 q 372 415 403 413 q 414 412 418 403 q 423 394 418 386 q 414 377 403 378 q 353 380 320 384 q 297 325 284 278 q 283 275 280 261 q 291 265 300 254 q 308 242 298 232 q 286 219 278 214 q 264 206 252 214 q 241 222 241 238 q 241 257 254 302 q 266 339 284 389 q 277 390 259 394 q 241 397 231 399 q 186 350 149 320 q 105 284 73 274 q 33 261 8 283 q -5 295 -7 310 q -9 326 0 340 q 8 355 18 367 q 29 379 41 388 q 120 450 218 436 q 237 457 264 489 q 337 575 416 687 q 439 734 458 769 q 487 824 510 857 q 535 895 552 905 q 560 910 570 908 q 580 906 582 896 z m 276 238 z m 548 894 q 549 894 548 894 z m 548 892 q 547 891 547 891 q 547 891 548 892 q 548 892 548 892 z m 110 334 q 148 362 188 404 q 170 404 156 402 q 112 394 73 368 q 34 343 29 320 q 28 315 30 310 q 31 310 33 308 q 35 307 37 306 q 40 305 42 304 q 45 304 48 304 q 50 304 51 305 q 75 309 110 334 z m 298 423 q 315 465 341 525 q 341 526 342 528 q 343 531 344 532 q 301 477 258 429 q 277 426 298 423 z m 569 874 z"},"1":{"x_min":0,"x_max":406,"ha":406,"o":"m 378 787 q 389 790 396 781 q 403 772 398 761 q 326 621 228 391 q 214 358 188 296 q 162 233 150 206 q 139 178 124 157 q 163 158 196 156 q 206 155 210 146 q 215 137 210 128 q 206 120 196 121 q 141 125 85 121 q 56 104 23 115 q 12 119 11 133 q 10 147 23 149 q 46 153 75 155 q 83 160 91 170 q 99 179 104 188 q 110 198 116 210 q 121 222 124 232 q 128 241 132 253 q 137 265 140 270 q 185 378 211 439 q 288 619 350 744 q 259 722 251 721 q 241 718 234 726 q 227 733 229 742 q 231 752 242 755 q 261 759 285 765 q 309 771 334 777 q 360 783 378 787 z"},"5":{"x_min":0,"x_max":456,"ha":456,"o":"m 448 732 q 459 731 463 722 q 467 713 463 704 q 459 696 448 697 q 354 701 226 706 q 214 679 149 528 q 131 488 125 473 q 157 473 192 474 q 227 476 263 468 q 299 461 327 448 q 355 436 372 408 q 390 381 389 342 q 386 272 336 197 q 292 133 210 116 q 182 108 146 112 q 109 116 76 126 q 44 136 21 162 q -2 187 -2 222 q -2 233 6 238 q 15 242 24 238 q 33 233 33 222 q 33 194 58 176 q 83 158 116 151 q 198 133 264 175 q 320 211 347 303 q 363 359 341 391 q 308 439 191 441 q 161 441 120 438 q 111 438 102 438 q 93 437 87 443 q 81 449 83 461 q 84 466 98 497 q 108 522 127 566 q 184 695 197 729 q 203 742 214 742 q 345 736 448 732 z"}}}
